<?xml version="1.0" standalone="no"?>
<!DOCTYPE svg PUBLIC "-//W3C//DTD SVG 20010904//EN"
 "http://www.w3.org/TR/2001/REC-SVG-20010904/DTD/svg10.dtd">
<svg version="1.0" xmlns="http://www.w3.org/2000/svg"
 width="512.000000pt" height="512.000000pt" viewBox="0 0 512.000000 512.000000"
 preserveAspectRatio="xMidYMid meet">
<metadata>
Created by potrace 1.11, written by Peter Selinger 2001-2013
</metadata>
<g transform="translate(0.000000,512.000000) scale(0.100000,-0.100000)"
fill="#000000" stroke="none">
<path d="M544 5103 c0 -10 -5 -17 -12 -15 -8 1 -11 -2 -7 -8 3 -6 11 -8 16 -5
5 4 9 2 9 -4 0 -5 -4 -13 -10 -16 -5 -3 -10 -2 -10 4 0 5 -14 9 -31 9 -19 -1
-26 -4 -17 -9 10 -6 10 -11 1 -20 -6 -6 -9 -19 -6 -28 4 -13 3 -13 -5 -2 -6 8
-8 20 -5 28 3 7 0 13 -7 13 -6 0 -8 -5 -4 -12 5 -8 2 -9 -10 -5 -16 6 -16 5
-1 -15 20 -29 19 -44 -1 -24 -20 20 -30 20 -38 0 -3 -8 -10 -12 -16 -9 -6 4
-7 -1 -3 -11 5 -14 8 -14 23 6 13 17 19 20 25 10 5 -9 4 -11 -3 -6 -11 7 -17
-6 -13 -27 1 -5 -3 -6 -8 -3 -5 4 -12 2 -16 -4 -3 -5 -12 -10 -18 -10 -8 0 -8
3 2 9 7 5 9 11 5 14 -5 3 -15 -1 -22 -9 -8 -9 -9 -14 -2 -14 6 0 8 -5 5 -10
-4 -6 -10 -8 -15 -5 -10 6 -8 -15 3 -32 4 -7 1 -10 -10 -8 -10 1 -17 8 -15 15
1 6 -2 8 -9 4 -9 -5 -6 -12 9 -25 12 -9 22 -20 22 -24 0 -4 -7 -2 -15 5 -8 7
-15 9 -15 4 0 -5 -4 -3 -9 4 -5 9 -8 3 -9 -18 0 -17 4 -28 9 -24 5 3 7 10 4
15 -4 5 -1 9 4 9 16 0 14 -9 -9 -37 -14 -18 -17 -30 -10 -43 8 -14 4 -20 -20
-30 -26 -11 -29 -16 -25 -42 4 -22 2 -28 -7 -22 -7 5 -5 -3 4 -18 13 -19 15
-29 6 -34 -7 -5 -8 -3 -3 6 6 9 4 11 -4 6 -9 -6 -8 -13 6 -29 12 -15 13 -18 2
-9 -25 19 -31 2 -6 -19 14 -13 17 -18 7 -17 -10 2 -14 -4 -12 -19 2 -13 -1
-23 -6 -23 -5 0 -9 -7 -9 -15 0 -11 4 -12 14 -3 7 6 16 8 20 4 3 -3 1 -6 -5
-6 -7 0 -12 -7 -12 -15 0 -8 -6 -15 -12 -15 -10 0 -9 -3 1 -9 9 -6 10 -10 2
-14 -8 -4 -8 -5 0 -3 7 1 13 10 15 20 1 10 5 21 9 24 7 7 0 -33 -11 -63 -6
-16 -5 -18 7 -7 19 18 33 15 15 -4 -9 -8 -14 -19 -11 -24 3 -5 0 -10 -7 -12
-8 -3 -6 -7 4 -11 12 -4 16 -1 13 13 -2 11 0 22 5 25 4 3 7 -3 5 -12 -1 -10 4
-28 11 -40 13 -21 11 -26 -6 -25 -9 1 -6 -62 4 -76 5 -9 11 -10 20 -3 9 8 13
7 13 -4 0 -8 -6 -15 -13 -15 -7 0 -16 -5 -20 -12 -4 -7 -3 -8 4 -4 7 4 12 1
12 -6 0 -10 3 -9 11 2 9 12 10 11 6 -7 -3 -13 0 -26 5 -30 7 -4 8 -1 3 8 -5 8
-5 11 0 7 4 -4 15 -2 24 5 14 10 14 10 3 -5 -8 -9 -10 -23 -6 -29 4 -8 3 -9
-4 -5 -8 5 -10 2 -6 -8 3 -9 11 -13 17 -9 5 3 7 1 3 -5 -3 -6 -2 -13 2 -16 5
-3 7 -18 4 -32 -4 -21 -2 -25 9 -19 11 7 11 5 -1 -10 -14 -17 -13 -17 10 -12
14 4 19 4 12 1 -10 -5 -8 -10 7 -21 20 -14 20 -40 0 -27 -5 3 -7 10 -4 15 4 5
2 9 -3 9 -6 0 -12 -7 -16 -15 -3 -8 -2 -14 2 -14 20 3 23 -3 11 -18 -11 -15
-11 -16 1 -5 18 16 38 16 22 0 -10 -10 -7 -15 10 -26 22 -13 22 -13 -7 -8 -16
3 -24 3 -17 0 6 -3 9 -10 6 -16 -4 -6 2 -8 17 -4 13 3 18 3 12 0 -16 -7 -17
-44 -2 -44 5 0 8 4 4 9 -3 5 -1 12 4 15 15 10 6 -25 -10 -35 -10 -7 -7 -8 11
-7 20 3 24 -1 22 -17 -2 -11 -8 -23 -14 -26 -5 -3 -2 -9 7 -12 11 -5 14 -3 9
6 -5 9 -3 8 7 -1 12 -11 12 -14 0 -22 -13 -7 -13 -11 -1 -25 12 -14 12 -18 -1
-27 -11 -8 -10 -9 4 -4 13 4 17 1 15 -12 -2 -9 2 -16 9 -15 7 2 10 -4 7 -12
-6 -14 6 -20 29 -16 4 1 3 -8 -3 -19 -6 -11 -16 -20 -23 -20 -7 -1 4 -10 23
-21 28 -16 30 -19 10 -14 -14 2 -19 2 -12 -1 6 -3 12 -12 12 -20 0 -8 5 -14
11 -14 5 0 7 5 3 12 -4 7 -3 8 4 4 6 -4 9 -13 5 -22 -3 -9 0 -14 7 -12 7 2 15
-4 17 -12 4 -13 3 -13 -6 0 -6 8 -11 11 -11 6 0 -5 -6 -3 -14 3 -10 8 -16 9
-21 1 -4 -6 -3 -9 2 -8 5 2 20 -8 33 -21 14 -13 19 -21 13 -17 -9 5 -11 2 -7
-9 5 -13 9 -13 23 -3 15 12 15 11 0 -7 -24 -30 -34 -49 -21 -41 6 3 16 -3 23
-15 9 -18 9 -21 -3 -16 -8 3 -15 -1 -15 -8 0 -9 7 -11 21 -5 12 4 19 14 18 22
-2 7 0 9 4 5 5 -4 9 -19 10 -33 1 -17 -2 -22 -10 -14 -5 5 -14 10 -19 10 -6 0
6 -14 24 -31 19 -17 28 -28 22 -24 -8 4 -13 0 -13 -9 0 -9 -5 -16 -12 -16 -6
0 -8 -3 -5 -6 4 -4 13 -1 22 6 15 12 22 0 8 -14 -4 -4 -8 -20 -8 -35 -1 -23 3
-27 20 -23 11 3 23 10 27 16 4 6 6 -2 4 -17 -1 -15 -6 -30 -10 -35 -4 -4 -6
-1 -4 7 1 7 -4 16 -12 18 -12 4 -12 3 -2 -5 8 -5 14 -13 15 -18 1 -5 8 -8 14
-8 7 1 10 -2 7 -7 -3 -5 -1 -9 4 -9 5 0 9 -7 9 -16 0 -15 -1 -15 -13 0 -11 15
-12 14 -10 -7 1 -17 6 -23 16 -19 12 4 13 2 3 -9 -18 -19 -16 -34 2 -19 8 7
15 11 16 9 7 -37 6 -40 -8 -35 -12 5 -13 4 -5 -7 7 -8 8 -18 4 -23 -4 -5 2 -1
14 9 20 16 21 16 21 0 0 -10 -5 -24 -11 -32 -8 -11 -8 -13 1 -7 9 5 13 0 13
-14 0 -13 -4 -19 -12 -14 -7 4 -8 3 -4 -4 4 -6 12 -9 20 -6 7 3 13 -2 13 -11
0 -10 -6 -14 -16 -10 -12 5 -13 3 -4 -6 6 -6 9 -19 6 -28 -4 -9 3 -5 14 8 15
18 20 20 20 8 0 -9 -4 -14 -9 -11 -4 3 -8 0 -8 -5 0 -10 13 -15 31 -13 3 1 6
-5 6 -13 0 -8 -3 -12 -6 -10 -4 2 -12 -8 -18 -22 -12 -25 -12 -25 9 -7 12 11
18 13 13 5 -6 -10 -4 -13 7 -9 8 4 15 0 15 -8 0 -7 -5 -10 -10 -7 -6 4 -7 -4
-3 -21 5 -20 4 -26 -5 -20 -8 5 -9 3 -5 -5 5 -7 14 -10 22 -7 8 3 13 2 13 -2
-1 -4 0 -10 1 -14 3 -9 7 -24 9 -34 0 -4 9 0 19 7 15 13 16 12 3 -3 -9 -13
-18 -15 -30 -8 -13 6 -18 5 -18 -5 0 -8 3 -14 6 -13 23 2 40 -4 45 -18 3 -8 2
-13 -2 -10 -4 2 -8 -9 -8 -25 -1 -16 3 -29 8 -29 5 0 6 -6 2 -12 -5 -9 -2 -8
9 1 15 12 17 12 12 -2 -4 -8 -1 -18 4 -22 6 -3 8 -12 4 -18 -10 -16 -13 -38
-4 -33 4 3 13 -4 21 -14 8 -10 17 -17 20 -15 4 2 7 -2 7 -10 0 -20 -7 -19 -23
3 -7 9 -14 12 -14 5 0 -6 5 -15 10 -18 6 -4 7 -11 4 -17 -4 -7 -2 -8 4 -4 7 4
12 3 12 -3 0 -5 -5 -11 -12 -13 -7 -3 -5 -7 6 -11 12 -5 15 -3 10 6 -5 9 -4 9
6 0 17 -15 21 -55 6 -46 -6 3 -5 0 2 -8 11 -12 14 -12 23 1 9 12 10 12 5 -3
-3 -10 -6 -21 -6 -23 0 -3 -5 -2 -11 1 -6 4 -5 -2 2 -13 15 -24 31 -19 22 6
-3 9 -3 14 1 11 11 -10 16 -50 5 -44 -5 4 -9 1 -9 -5 0 -6 7 -13 15 -16 14 -6
14 -8 1 -18 -21 -15 -14 -43 15 -63 30 -21 39 -34 32 -46 -3 -5 1 -13 8 -18
11 -6 11 -11 2 -20 -7 -7 -9 -18 -4 -28 5 -9 7 -24 6 -34 -2 -9 0 -15 3 -13
10 6 47 -23 39 -30 -3 -4 -1 -16 5 -28 9 -18 9 -19 -3 -11 -8 6 -6 2 4 -7 18
-17 12 -24 -16 -19 -5 1 -6 -3 -2 -8 3 -6 13 -7 22 -4 14 5 15 0 11 -38 -5
-36 -4 -40 5 -21 5 12 14 22 18 22 10 0 1 -29 -14 -48 -6 -7 -6 -12 -1 -11 19
3 58 -3 46 -8 -6 -2 -9 -10 -5 -16 4 -7 -1 -6 -10 2 -15 12 -17 12 -11 -3 3
-9 14 -16 23 -16 11 -1 9 -5 -9 -16 l-25 -15 25 6 c25 6 25 6 5 -11 -15 -13
-16 -15 -3 -11 9 3 19 0 22 -9 3 -8 1 -12 -4 -9 -6 3 -7 -1 -4 -9 4 -10 1 -16
-7 -16 -7 0 -9 -3 -6 -7 4 -3 16 2 27 12 20 18 21 18 14 0 -6 -14 -4 -16 6
-10 8 5 11 4 6 -3 -3 -6 -2 -13 3 -16 4 -3 5 -24 1 -48 -6 -30 -4 -48 6 -63 8
-12 12 -24 9 -27 -3 -2 2 -5 9 -5 12 0 11 7 -5 29 -20 28 -18 49 4 47 9 0 9
-2 0 -5 -9 -4 -9 -11 -1 -30 6 -13 15 -24 20 -24 13 0 9 -17 -7 -34 -9 -9 -11
-17 -5 -21 5 -3 10 0 10 7 0 8 6 7 17 -5 14 -14 15 -19 4 -29 -10 -11 -11 -10
-6 5 4 9 5 17 2 17 -3 0 -7 -6 -10 -13 -6 -17 37 -70 48 -59 4 4 3 -3 -4 -15
-7 -14 -8 -24 -1 -28 5 -3 10 -1 10 5 0 6 5 8 11 4 8 -5 6 -10 -5 -16 -9 -5
-23 -6 -29 -1 -7 4 -5 1 5 -8 9 -9 14 -20 10 -23 -3 -4 1 -4 11 0 12 4 17 1
17 -11 0 -10 -5 -13 -12 -9 -7 4 -8 3 -4 -4 4 -6 14 -8 23 -5 10 4 14 2 9 -5
-3 -6 2 -15 11 -21 10 -6 13 -11 7 -11 -5 0 -15 5 -22 12 -9 9 -12 9 -12 0 0
-7 5 -12 11 -12 5 0 7 -4 4 -10 -3 -5 0 -7 8 -4 8 3 18 0 23 -7 4 -7 3 -10 -4
-5 -6 3 -14 1 -18 -5 -4 -8 -3 -9 4 -5 7 4 12 2 12 -4 0 -6 4 -9 8 -6 5 3 14
-4 22 -14 8 -10 18 -16 24 -13 6 4 4 -2 -4 -12 -9 -11 -10 -16 -3 -11 8 4 13
2 13 -4 0 -13 40 -49 55 -50 6 0 3 5 -5 11 -13 9 -13 10 0 6 8 -2 16 -10 16
-18 1 -8 2 -18 3 -23 0 -5 7 -3 14 3 8 6 18 7 22 3 5 -4 5 -1 1 6 -4 7 -12 10
-17 7 -5 -4 -9 -1 -9 4 0 16 16 13 30 -4 7 -9 19 -14 27 -11 8 4 11 1 8 -5 -4
-6 -12 -8 -19 -6 -6 3 -20 -1 -31 -9 -10 -8 -14 -14 -9 -14 6 0 15 5 22 12 9
9 12 9 12 0 0 -6 7 -9 15 -6 11 5 14 1 9 -12 -5 -16 -4 -16 5 -4 10 14 16 7
11 -15 -1 -5 4 -5 11 2 10 10 15 9 26 -5 12 -16 13 -16 7 1 -4 10 -3 17 2 16
27 -5 36 1 25 15 -9 11 -9 16 0 22 7 4 9 3 5 -4 -10 -16 11 -24 34 -12 12 7
26 7 36 2 15 -8 15 -10 0 -15 -10 -4 -15 -3 -11 3 9 14 -1 12 -35 -5 -17 -9
-30 -21 -29 -28 0 -9 2 -9 6 1 2 6 11 12 19 12 9 0 12 -5 8 -12 -4 -7 -3 -8 5
-4 6 4 8 12 5 18 -5 8 -1 9 10 5 10 -4 36 2 59 13 22 11 43 17 47 13 3 -5 4
-7 1 -6 -2 1 -13 -3 -25 -9 -11 -7 -24 -12 -28 -13 -3 0 -9 -3 -13 -7 -4 -3 0
-5 9 -4 8 1 19 5 22 9 12 12 22 8 27 -10 4 -16 5 -16 6 1 1 16 3 17 18 5 14
-12 16 -12 8 1 -13 20 -17 70 -5 50 9 -14 15 -7 11 14 -1 5 5 3 14 -4 14 -11
18 -11 25 -1 6 11 9 11 14 0 3 -8 4 -4 2 9 -5 26 -3 27 19 6 11 -12 19 -13 29
-5 7 6 15 9 17 6 3 -2 6 5 6 17 3 30 13 35 29 14 8 -11 14 -15 14 -9 0 7 -7
19 -16 27 -13 14 -13 16 -1 16 9 0 17 3 20 8 2 4 3 2 1 -4 -1 -6 2 -17 7 -25
8 -12 10 -12 8 1 -3 27 1 40 12 40 5 0 7 -6 3 -13 -5 -9 -3 -9 7 1 12 11 12
14 -1 22 -12 8 -12 10 -1 10 11 0 11 3 0 18 -13 15 -12 16 3 3 10 -7 16 -17
13 -20 -2 -4 2 -8 10 -8 8 0 12 4 9 8 -2 4 6 15 18 25 15 11 17 14 6 11 -22
-8 -23 9 -3 43 16 27 21 19 6 -9 -7 -13 -6 -18 4 -18 8 0 12 4 9 9 -3 4 -1 8
4 8 5 0 8 13 7 30 -1 16 2 27 6 25 13 -8 18 22 6 35 -10 10 -8 10 9 2 11 -6
26 -7 33 -3 10 6 9 10 -4 14 -11 5 -14 3 -9 -6 4 -6 3 -8 -2 -4 -4 4 -9 19
-10 33 0 13 1 22 4 19 3 -3 11 0 19 7 11 9 13 8 11 -2 -2 -7 4 -15 12 -17 13
-4 13 -3 0 6 -8 6 -11 11 -6 11 5 0 3 7 -4 15 -7 8 -17 12 -23 8 -6 -3 -7 -1
-3 6 6 9 11 9 21 1 9 -8 15 -8 20 0 3 5 1 10 -5 10 -6 0 -4 8 6 17 11 11 13
18 5 21 -6 2 -11 8 -11 13 0 6 4 8 9 4 5 -3 13 0 17 6 4 7 3 9 -2 6 -6 -3 -16
-2 -24 4 -13 7 -12 9 2 9 9 0 20 5 24 12 4 6 3 8 -3 5 -6 -4 -13 5 -15 23 -2
16 -1 27 4 24 4 -3 8 2 8 11 0 9 -5 13 -10 10 -6 -3 -10 -2 -10 4 0 5 5 11 10
13 13 4 24 58 11 58 -4 0 -8 -10 -7 -22 0 -11 -6 -23 -14 -25 -9 -3 -11 -1 -5
4 20 16 17 92 -5 128 -19 31 -20 34 -3 31 10 -2 24 3 31 10 11 12 10 14 -12
10 -20 -4 -24 -1 -21 15 2 10 6 23 10 28 3 5 1 12 -5 16 -6 4 -7 11 -4 17 4 7
2 8 -4 4 -7 -4 -12 -1 -12 8 0 9 -4 16 -9 16 -14 0 -21 29 -9 36 6 4 8 3 4 -4
-3 -6 -2 -13 3 -17 6 -3 8 4 6 16 -5 24 -15 38 -15 21 0 -7 -4 -12 -10 -12 -6
0 -6 9 0 26 13 34 13 39 -5 24 -8 -7 -12 -17 -8 -23 3 -6 1 -7 -5 -3 -9 5 -9
13 -2 26 14 26 13 30 -11 30 -19 0 -19 1 -5 16 20 20 21 30 1 14 -14 -11 -19
-7 -16 13 0 4 -4 7 -11 7 -6 0 -4 6 6 13 17 13 17 14 1 30 -12 12 -13 17 -3
17 10 0 10 3 -2 9 -8 6 -18 7 -22 5 -4 -3 -8 0 -8 6 0 7 7 10 15 7 23 -9 28
11 6 25 -15 9 -17 16 -10 30 7 14 6 16 -6 12 -8 -3 -12 -10 -9 -15 3 -5 0 -9
-5 -9 -14 0 -14 11 -1 45 7 19 7 24 -2 19 -7 -5 -9 -2 -6 8 4 8 2 21 -4 29 -8
11 -9 11 -5 -3 6 -17 -16 -19 -30 -3 -4 4 -2 5 5 1 7 -4 12 -1 12 8 0 8 3 16
8 19 4 2 1 2 -5 1 -19 -5 -47 8 -35 15 10 6 15 26 13 51 -1 13 -2 13 -11 0
-14 -22 -13 6 2 33 11 21 10 21 -7 7 -17 -14 -18 -13 -12 3 3 9 3 17 -1 17 -4
0 -8 9 -9 20 -1 11 2 18 7 15 11 -7 7 22 -5 32 -4 4 -5 3 -2 -3 9 -16 -16 -25
-34 -12 -11 8 -11 9 3 5 11 -4 15 -1 13 11 -2 9 -4 21 -4 25 -1 5 -6 5 -11 2
-6 -3 -10 1 -10 10 0 9 -4 14 -8 11 -5 -3 -9 1 -9 8 0 8 6 12 14 9 7 -3 13
-10 13 -16 0 -6 3 -8 6 -4 3 3 2 12 -2 19 -5 7 -9 15 -9 18 -1 10 -24 45 -25
36 0 -5 -7 -3 -15 4 -10 8 -13 21 -9 33 4 14 3 17 -6 12 -8 -5 -11 -4 -6 3 3
5 0 13 -6 16 -7 3 -3 3 10 0 13 -3 22 -1 22 6 0 6 -5 8 -10 5 -6 -3 -10 -1
-10 5 0 6 -4 8 -10 5 -6 -4 -7 1 -3 11 4 10 2 15 -4 11 -5 -3 -10 0 -10 8 0
19 2 19 21 -1 9 -8 16 -11 16 -5 0 6 -9 16 -19 23 -15 9 -17 15 -9 26 9 10 6
16 -10 28 -22 15 -32 51 -10 38 7 -4 8 -3 4 5 -5 8 -12 9 -19 2 -8 -6 -17 -4
-27 7 -13 14 -12 15 3 9 22 -8 22 9 0 22 -11 6 -13 11 -5 11 8 0 11 9 8 24 -2
14 -1 27 2 29 4 2 2 2 -5 1 -6 -2 -14 4 -17 12 -3 8 0 14 7 14 8 0 6 4 -3 10
-8 5 -11 10 -6 10 5 0 3 6 -3 13 -6 8 -10 16 -8 18 1 2 0 3 -2 1 -3 -1 -6 -9
-7 -17 -1 -8 1 -13 6 -10 5 3 7 -3 5 -12 -1 -10 4 -29 12 -43 l15 -25 -24 25
c-14 14 -21 28 -15 31 5 4 5 9 -2 13 -6 4 -9 11 -6 15 2 5 -2 17 -9 27 -12 16
-12 24 0 53 14 34 14 34 -5 17 -14 -13 -21 -14 -27 -5 -4 7 -3 10 3 6 6 -4 13
2 16 13 3 11 1 21 -4 21 -5 1 -14 2 -21 3 -6 0 -13 8 -15 16 -4 13 -3 13 6 0
9 -13 11 -13 11 2 0 9 -5 18 -12 20 -17 6 -18 38 -1 38 12 0 13 3 4 13 -6 8
-8 17 -4 21 4 4 0 4 -9 1 -9 -4 -18 0 -21 9 -4 9 -3 15 1 13 7 -2 12 6 12 18
0 3 -9 1 -19 -5 -16 -8 -19 -7 -17 8 2 9 -2 21 -8 25 -7 6 -6 7 4 4 8 -2 13
-11 12 -18 -2 -8 0 -10 4 -6 10 10 15 38 5 33 -4 -3 -13 -1 -21 5 -13 8 -13 9
0 9 10 0 7 5 -8 16 -12 8 -19 20 -16 26 10 16 13 59 4 53 -4 -3 -11 2 -14 11
-9 23 -8 26 7 18 8 -5 8 -2 -2 9 -7 9 -19 17 -25 17 -6 0 -4 -5 4 -10 11 -7
11 -10 2 -10 -7 0 -10 -4 -7 -10 3 -5 1 -10 -5 -10 -6 0 -8 12 -5 31 4 23 2
29 -7 23 -9 -6 -9 -3 1 9 7 9 11 18 7 18 -3 1 -10 2 -15 3 -5 0 -13 5 -18 10
-4 5 -3 7 2 3 6 -3 17 -2 24 2 10 6 9 12 -4 25 -19 18 -13 52 7 40 7 -4 10 -3
5 1 -12 14 -45 16 -53 3 -5 -8 -1 -9 12 -4 15 6 17 5 6 -5 -10 -11 -16 -10
-30 5 -10 10 -12 16 -4 14 7 -2 19 12 27 30 17 39 11 42 -10 5 l-16 -28 4 28
c2 15 0 27 -6 27 -5 0 -4 6 2 14 9 11 9 16 0 22 -9 5 -7 11 7 21 19 14 19 14
-1 11 -13 -2 -19 2 -17 11 1 7 -2 19 -8 25 -5 7 -6 17 -2 21 4 5 2 5 -4 2 -15
-8 -25 17 -18 41 5 15 4 15 -6 2 -10 -13 -11 -11 -7 8 3 14 1 20 -6 15 -6 -4
-8 0 -4 10 3 10 2 17 -3 17 -6 0 -10 9 -10 20 0 17 -10 24 -31 22 -4 -1 -6 7
-6 16 0 43 -3 53 -15 46 -8 -4 -10 -3 -5 2 5 5 13 9 18 9 13 0 12 11 -5 44 -9
16 -13 31 -10 33 2 3 -3 11 -12 18 -13 12 -17 11 -25 -1 -11 -18 -11 -7 0 24
5 13 5 30 1 38 -6 8 -4 16 3 21 9 6 9 8 -1 8 -7 0 -10 5 -6 12 4 7 3 8 -5 4
-6 -4 -9 -11 -6 -16 3 -5 0 -12 -6 -16 -7 -4 -9 -3 -5 4 3 6 -1 15 -11 21 -16
8 -14 10 11 17 19 4 24 9 15 14 -7 5 -18 6 -26 3 -7 -3 -13 0 -13 6 0 6 4 11
8 11 5 0 9 7 9 15 0 10 -4 12 -12 5 -6 -5 -17 -5 -24 -1 -11 7 -9 10 7 15 11
4 23 14 26 23 5 12 3 13 -7 5 -7 -6 -19 -7 -26 -3 -10 6 -9 10 5 15 13 5 15 9
6 18 -7 7 -12 20 -12 30 0 10 -4 18 -10 18 -6 0 -6 -9 0 -26 12 -32 12 -34 0
-34 -5 0 -9 3 -9 8 3 20 -2 43 -9 38 -5 -3 -9 1 -9 9 0 8 3 13 6 11 3 -2 12 3
20 11 12 13 11 14 -8 8 -18 -5 -21 -2 -21 19 0 14 5 26 12 26 6 0 8 3 5 6 -4
4 -14 1 -24 -7 -11 -9 -14 -10 -9 -1 4 7 2 12 -6 12 -11 0 -11 2 0 9 11 7 11
11 -2 24 -17 17 -21 29 -8 25 4 -2 7 2 7 7 0 6 -3 9 -7 7 -12 -3 -10 16 2 23
6 3 10 12 10 18 0 7 -4 6 -10 -3 -9 -14 -15 -7 -11 14 1 5 -5 3 -14 -4 -8 -7
-18 -10 -22 -6 -3 3 -1 6 5 6 7 0 12 5 12 11 0 5 -4 8 -8 5 -5 -3 -9 1 -9 9 0
8 3 12 7 10 3 -2 6 12 6 30 0 18 -4 31 -8 29 -5 -3 -5 -10 -2 -16 4 -7 2 -8
-5 -4 -6 4 -9 18 -7 31 3 14 0 27 -5 31 -5 3 -6 10 -3 16 4 6 2 8 -4 5 -5 -4
-17 -4 -26 -1 -12 5 -13 10 -5 25 6 13 6 19 -1 19 -5 0 -9 5 -8 11 2 6 -4 14
-12 16 -9 3 -11 1 -5 -4 6 -4 11 -17 13 -28 2 -18 2 -19 -8 -2 -20 31 -21 56
-2 50 15 -4 15 -3 2 6 -11 8 -18 6 -29 -7 -13 -16 -13 -16 -8 1 4 9 2 17 -4
17 -6 0 -7 5 -4 10 3 6 1 10 -4 10 -6 0 -11 5 -11 11 0 5 4 8 9 4 5 -3 13 -1
16 5 4 6 1 9 -6 8 -7 -2 -13 2 -14 9 0 6 -4 15 -9 20 -5 4 -6 3 -2 -4 3 -6 2
-14 -3 -18 -6 -3 -8 -13 -5 -23 5 -15 5 -15 -6 1 -6 9 -9 21 -6 26 3 4 -6 6
-19 3 -17 -3 -25 0 -25 9 0 11 -3 11 -11 -1 -9 -12 -10 -12 -5 3 3 10 6 21 6
23 0 3 5 2 12 -2 6 -4 8 -3 4 4 -7 11 -37 9 -58 -4 -6 -4 -8 -3 -5 3 4 6 -59
10 -178 10 -119 1 -185 -3 -185 -9 0 -6 -5 -6 -14 1 -11 9 -14 8 -12 -6z m43
0 c-4 -3 1 -11 9 -18 15 -11 15 -12 0 -12 -9 0 -16 4 -16 8 0 5 -8 6 -17 2
-15 -5 -14 -3 2 10 20 16 34 23 22 10z m43 1 c0 -8 -19 -13 -24 -6 -3 5 1 9 9
9 8 0 15 -2 15 -3z m-250 -189 c-7 -8 -17 -15 -22 -15 -11 0 14 29 26 30 5 0
3 -7 -4 -15z m794 -33 c3 -5 -1 -9 -9 -9 -8 0 -15 4 -15 9 0 4 4 8 9 8 6 0 12
-4 15 -8z m-1 -37 c-3 -9 -8 -14 -10 -11 -3 3 -2 9 2 15 9 16 15 13 8 -4z m27
-39 c0 -2 -7 -7 -16 -10 -8 -3 -12 -2 -9 4 6 10 25 14 25 6z m-906 -88 c-3 -4
-12 -8 -20 -8 -8 0 -13 4 -10 8 3 5 12 9 20 9 8 0 13 -4 10 -9z m936 8 c0 -3
-4 -8 -10 -11 -5 -3 -10 -1 -10 4 0 6 5 11 10 11 6 0 10 -2 10 -4z m-940 -60
c0 -3 -4 -8 -10 -11 -5 -3 -10 -1 -10 4 0 6 5 11 10 11 6 0 10 -2 10 -4z
m1085 -355 c3 -5 2 -12 -3 -15 -5 -3 -9 1 -9 9 0 17 3 19 12 6z m-1060 -10 c3
-5 1 -12 -4 -16 -6 -3 -7 -13 -4 -23 5 -14 3 -15 -7 -5 -10 10 -11 15 -1 27 9
11 9 15 -1 19 -9 4 -9 6 -1 6 6 1 14 -3 18 -8z m1090 -50 c3 -5 1 -12 -5 -16
-5 -3 -10 1 -10 9 0 18 6 21 15 7z m19 -56 c14 -21 14 -24 1 -19 -8 4 -15 12
-15 19 0 7 -6 16 -12 18 -8 4 -9 6 -2 6 7 1 19 -10 28 -24z m33 -121 c-3 -3
-12 -4 -19 -1 -8 3 -5 6 6 6 11 1 17 -2 13 -5z m8 -34 c3 -5 1 -10 -4 -10 -6
0 -11 5 -11 10 0 6 2 10 4 10 3 0 8 -4 11 -10z m60 -126 c-2 -6 1 -16 7 -22 6
-6 6 -12 -3 -17 -8 -5 -10 -4 -5 3 4 7 2 12 -4 12 -7 0 -9 8 -4 22 6 21 6 22
-12 8 -18 -14 -18 -14 -5 3 7 9 9 17 3 17 -5 0 -12 10 -15 22 -5 19 -3 18 18
-7 13 -17 23 -35 20 -41z m-1016 -173 c18 -25 19 -30 5 -35 -9 -3 -12 -2 -9 5
4 5 -1 21 -9 34 -23 35 -12 31 13 -4z m121 -275 c0 -2 -8 -10 -17 -17 -16 -13
-17 -12 -4 4 13 16 21 21 21 13z m1100 -100 c0 -2 -7 -7 -16 -10 -8 -3 -12 -2
-9 4 6 10 25 14 25 6z m-1045 -86 c-3 -5 -12 -10 -18 -10 -7 0 -6 4 3 10 19
12 23 12 15 0z m5 -26 c0 -8 -19 -13 -24 -6 -3 5 1 9 9 9 8 0 15 -2 15 -3z
m1188 -317 l22 -23 -23 -1 c-17 -2 -19 0 -7 7 13 8 8 14 -11 12 -3 -1 -6 6 -6
14 0 18 0 18 25 -9z m87 -217 c3 -5 1 -10 -4 -10 -6 0 -11 5 -11 10 0 6 2 10
4 10 3 0 8 -4 11 -10z m-1055 -59 c0 -6 -4 -12 -8 -15 -5 -3 -9 1 -9 9 0 8 4
15 9 15 4 0 8 -4 8 -9z m34 -102 c-2 -4 2 -10 8 -12 8 -4 9 -6 2 -6 -6 -1 -17
5 -23 12 -8 10 -7 14 4 14 8 0 12 -4 9 -8z m1101 -79 c-3 -5 -12 -10 -18 -10
-7 0 -6 4 3 10 19 12 23 12 15 0z m45 -120 c0 -5 -5 -10 -11 -10 -5 0 -7 5 -4
10 3 6 8 10 11 10 2 0 4 -4 4 -10z m36 -76 c18 -14 18 -14 -6 -3 -31 14 -36
19 -24 19 6 0 19 -7 30 -16z m-1087 -10 c4 3 7 -4 8 -14 1 -11 -3 -17 -11 -14
-6 2 -12 15 -13 27 0 12 1 16 4 9 3 -6 8 -10 12 -8z m96 -194 c3 -5 -4 -6 -15
-3 -11 3 -22 9 -25 13 -3 5 4 6 15 3 11 -3 22 -9 25 -13z m1105 -115 c7 -8 9
-15 6 -15 -4 0 -14 7 -22 15 -9 8 -11 15 -6 15 5 0 15 -7 22 -15z m-13 -47
c-3 -8 -6 -5 -6 6 -1 11 2 17 5 13 3 -3 4 -12 1 -19z m-892 -436 c-3 -3 -11 0
-18 7 -9 10 -8 11 6 5 10 -3 15 -9 12 -12z m170 -272 c-3 -5 -1 -10 6 -10 7 0
10 -2 7 -5 -3 -3 -13 -2 -22 1 -14 5 -15 9 -4 15 17 11 20 11 13 -1z m99 -36
c3 -8 2 -12 -4 -9 -6 3 -10 10 -10 16 0 14 7 11 14 -7z m406 12 c0 -2 -7 -9
-15 -16 -13 -11 -14 -10 -9 4 5 14 24 23 24 12z m-364 -45 c-7 -10 18 -34 26
-25 3 3 9 1 12 -4 6 -10 -34 -10 -51 1 -13 8 -7 37 9 37 5 0 7 -4 4 -9z m179
-1 c3 -5 1 -10 -4 -10 -6 0 -11 5 -11 10 0 6 2 10 4 10 3 0 8 -4 11 -10z"/>
<path d="M4097 5113 c-4 -3 3 -18 15 -32 l23 -25 -35 24 -35 24 25 -29 c14
-16 18 -24 9 -17 -18 13 -67 26 -55 15 4 -4 -4 -13 -16 -20 l-23 -14 23 6 c12
4 22 2 22 -3 0 -17 -12 -21 -39 -11 -21 8 -24 8 -13 -2 6 -7 12 -17 12 -22 0
-4 -6 -5 -12 -1 -9 5 -9 2 1 -9 18 -22 3 -22 -23 1 -20 16 -20 16 -7 -1 8 -10
15 -32 16 -49 2 -27 0 -29 -10 -15 -7 10 -18 17 -26 17 -9 0 -10 -3 -3 -8 6
-4 14 -16 17 -27 7 -19 6 -19 -7 -2 -16 21 -23 22 -23 2 0 -8 4 -15 9 -15 4 0
8 -4 8 -10 0 -5 -6 -7 -12 -5 -9 4 -13 -6 -12 -35 1 -22 -2 -37 -7 -34 -5 3
-9 1 -9 -5 0 -6 -6 -8 -14 -5 -8 3 -17 0 -22 -7 -4 -7 -3 -10 3 -6 7 4 12 -7
15 -27 2 -19 0 -32 -4 -30 -4 3 -16 0 -25 -6 -17 -11 -17 -11 0 -6 9 3 17 1
17 -4 0 -6 -4 -10 -8 -10 -4 0 -7 -19 -5 -42 1 -30 -1 -38 -7 -28 -5 8 -7 22
-5 31 3 9 -3 22 -12 30 -17 13 -17 13 -3 -5 12 -15 12 -20 2 -24 -10 -3 -10
-7 -1 -18 6 -8 8 -14 4 -14 -4 0 -2 -6 4 -14 10 -12 8 -14 -12 -12 -14 2 -24
-2 -24 -10 0 -7 4 -11 8 -9 3 3 13 -3 20 -13 12 -15 12 -16 -1 -5 -9 7 -21 8
-29 4 -9 -6 -7 -10 9 -14 12 -3 19 -10 16 -16 -4 -6 -13 -8 -20 -5 -8 3 -17 0
-22 -7 -4 -7 -3 -10 2 -6 5 3 15 -6 21 -20 9 -19 9 -22 0 -15 -15 12 -47 12
-47 0 0 -5 7 -8 16 -6 10 2 19 -4 21 -12 4 -13 3 -13 -6 0 -10 14 -16 7 -12
-14 1 -4 -3 -14 -10 -22 -6 -8 -8 -22 -5 -31 5 -15 4 -15 -9 1 -17 23 -20 14
-4 -15 7 -15 7 -24 -2 -35 -9 -11 -9 -14 1 -14 8 0 10 -3 7 -7 -4 -3 -17 2
-29 13 -21 18 -21 18 2 -16 l24 -35 -26 23 c-19 17 -28 20 -33 11 -5 -7 -4
-10 3 -5 16 10 31 -25 21 -49 -9 -18 -9 -18 -5 3 2 12 0 20 -5 16 -5 -3 -9
-19 -9 -35 0 -18 -4 -28 -10 -24 -17 11 -11 -7 8 -21 16 -12 15 -13 -5 -9 -12
2 -27 -4 -35 -13 -11 -15 -11 -15 3 -4 13 10 19 9 29 -3 7 -9 10 -18 6 -22 -3
-3 -6 -1 -6 5 0 7 -4 12 -10 12 -6 0 -6 -9 0 -26 6 -14 6 -23 1 -20 -5 3 -20
-5 -34 -18 -21 -20 -23 -25 -11 -30 10 -4 12 -2 8 6 -4 7 -3 8 5 4 6 -4 9 -12
5 -17 -3 -5 -9 -7 -14 -4 -5 3 -11 1 -15 -5 -6 -9 9 -15 30 -10 5 1 1 -8 -9
-19 -20 -22 -32 -28 -21 -12 3 5 1 12 -4 15 -4 3 -8 -2 -8 -12 0 -30 -15 -62
-26 -55 -5 3 -7 1 -3 -5 3 -6 0 -17 -9 -25 -13 -13 -13 -16 1 -21 8 -3 12 -2
9 4 -3 6 -2 10 3 10 12 0 23 -26 15 -34 -3 -3 -15 0 -27 6 -18 10 -19 9 -9 -4
7 -8 10 -18 6 -22 -4 -4 1 -4 12 -1 18 6 18 5 2 -5 -9 -6 -21 -9 -26 -6 -5 4
-7 -3 -4 -14 4 -16 2 -19 -13 -14 -15 5 -16 4 -5 -4 8 -6 20 -8 27 -5 6 2 15
0 19 -6 4 -7 -1 -8 -12 -4 -10 3 -15 3 -11 -2 9 -10 -10 -35 -26 -35 -6 0 -2
7 8 15 11 8 15 15 10 15 -17 0 -33 -22 -27 -36 3 -8 10 -11 17 -7 7 4 7 1 -1
-9 -7 -8 -9 -19 -5 -23 4 -5 2 -6 -3 -2 -16 8 -38 -30 -23 -39 6 -4 8 -3 5 3
-3 5 0 10 8 10 11 0 12 -3 3 -14 -6 -8 -17 -12 -25 -9 -8 3 -11 1 -8 -4 3 -6
2 -10 -4 -10 -6 0 -9 -12 -8 -27 1 -19 -2 -27 -11 -25 -8 1 -11 -2 -8 -7 4 -5
1 -13 -4 -16 -8 -5 -6 -13 4 -24 17 -19 12 -33 -8 -25 -7 3 -13 -2 -13 -11 0
-9 6 -14 14 -11 9 4 11 2 6 -7 -4 -6 -8 -15 -8 -19 0 -3 -4 -10 -9 -15 -5 -4
-6 -3 -2 4 8 14 -10 28 -18 14 -4 -5 3 -16 14 -24 18 -13 19 -15 5 -21 -9 -3
-14 -2 -10 3 6 11 -22 8 -32 -4 -4 -4 -3 -5 3 -2 7 4 15 0 18 -9 5 -12 1 -14
-17 -9 -12 3 -17 3 -11 -2 12 -9 28 -46 16 -40 -4 3 -13 -1 -20 -9 -13 -14 -4
-20 22 -15 5 1 4 -5 -3 -13 -7 -8 -10 -20 -6 -27 5 -8 1 -8 -15 1 -12 7 -20 8
-17 3 3 -5 8 -21 11 -35 4 -24 2 -26 -22 -23 -15 2 -21 2 -14 -1 6 -3 10 -10
7 -15 -4 -5 2 -6 12 -3 10 3 2 -4 -17 -16 -28 -17 -30 -20 -10 -15 23 6 24 5
7 -9 -12 -9 -14 -16 -8 -21 6 -3 11 -12 11 -18 0 -7 -4 -6 -10 3 -8 13 -10 12
-10 -3 0 -12 -4 -16 -12 -11 -8 5 -7 0 2 -11 13 -17 13 -18 -1 -13 -10 4 -16
1 -16 -8 0 -9 7 -12 19 -8 30 9 20 -5 -14 -21 -18 -8 -25 -13 -15 -10 10 3 16
1 12 -4 -3 -5 1 -12 7 -14 10 -4 10 -6 0 -6 -7 -1 -10 -6 -6 -13 4 -7 3 -8 -5
-4 -6 4 -9 12 -6 17 4 5 2 9 -3 9 -14 0 -23 -43 -11 -55 7 -7 8 -4 4 10 -5 16
-5 17 3 5 11 -15 6 -34 -8 -25 -4 3 -13 -2 -20 -10 -7 -8 -9 -15 -4 -15 5 0 3
-4 -4 -9 -11 -7 -11 -9 1 -14 11 -4 15 -1 12 12 -2 10 3 18 11 18 10 0 11 -4
3 -14 -6 -7 -8 -13 -4 -13 4 0 2 -7 -5 -15 -6 -8 -8 -20 -4 -27 5 -8 -1 -7
-17 3 -24 16 -25 16 -26 -2 -1 -10 3 -19 8 -19 6 0 7 5 3 12 -4 7 -3 8 4 4 16
-10 2 -38 -16 -31 -13 5 -13 3 -1 -12 12 -15 12 -16 -2 -11 -19 7 -19 -29 0
-42 9 -5 10 -9 2 -14 -6 -4 -8 -12 -5 -18 4 -7 2 -8 -5 -4 -6 4 -9 11 -6 16 3
5 1 11 -4 15 -13 8 -3 -45 12 -65 10 -13 10 -13 -4 -3 -9 7 -20 9 -24 5 -5 -4
-6 -2 -2 3 3 6 2 17 -3 24 -5 9 -8 2 -9 -20 -2 -71 -3 -79 -11 -74 -5 3 -12 0
-16 -6 -4 -8 -3 -9 4 -5 7 4 12 1 12 -9 0 -11 -5 -15 -16 -11 -10 4 -13 2 -7
-7 13 -22 14 -49 1 -42 -7 4 -5 0 5 -8 16 -14 15 -15 -13 -19 -34 -5 -49 8
-30 25 10 9 12 8 7 -6 -4 -10 -3 -16 2 -12 6 3 9 14 8 25 -1 15 -4 17 -15 7
-8 -6 -20 -12 -27 -13 -16 -2 -51 33 -42 43 4 3 7 1 7 -6 0 -7 4 -10 9 -6 5 3
12 1 16 -5 8 -13 25 -13 25 1 0 5 -4 8 -8 5 -8 -5 -29 14 -45 41 -4 6 -2 15 4
19 7 4 9 3 5 -4 -3 -6 -2 -13 3 -16 5 -4 8 2 7 11 -2 13 -10 17 -27 15 -17 -2
-20 0 -11 6 18 12 18 13 2 42 -8 14 -13 29 -12 33 1 4 -5 21 -13 38 -9 16 -13
34 -10 39 3 5 -2 13 -11 18 -12 6 -15 18 -12 36 3 15 1 29 -5 33 -6 4 -7 1 -3
-8 4 -8 0 -5 -8 5 -9 11 -14 30 -12 43 3 13 1 21 -3 19 -4 -3 -13 -1 -21 5
-13 7 -12 9 2 9 9 0 19 4 23 9 3 6 -4 8 -16 6 -17 -4 -19 -2 -9 10 7 8 9 15 4
15 -5 0 -20 9 -34 20 -18 15 -20 18 -6 13 15 -5 17 -3 11 8 -5 8 -5 11 1 6 5
-5 9 -14 9 -20 0 -5 6 -11 13 -13 7 -1 8 0 2 3 -7 3 -7 10 1 20 10 11 10 14
-2 11 -8 -2 -13 2 -12 8 1 6 -9 10 -22 8 -14 -1 -25 2 -25 7 0 5 9 9 20 9 11
0 20 4 20 10 0 5 -7 7 -15 4 -18 -7 -20 17 -2 35 10 11 10 13 0 7 -8 -4 -13
-1 -13 8 0 9 -4 16 -10 16 -5 0 -10 5 -10 11 0 5 5 7 10 4 6 -4 5 4 -1 19 -7
15 -17 22 -23 18 -17 -10 -37 -11 -30 -1 3 5 10 7 15 4 5 -4 9 -1 9 4 0 6 -4
11 -10 11 -5 0 -10 7 -10 16 0 9 -5 12 -12 8 -7 -4 -8 -3 -4 5 4 6 11 9 15 7
4 -3 7 7 6 21 0 15 -7 28 -15 31 -13 3 -12 2 0 -7 13 -9 13 -11 -2 -11 -19 0
-24 15 -8 25 5 3 7 12 4 20 -4 8 -11 12 -18 8 -8 -5 -8 -3 0 8 9 11 8 17 -4
29 -14 13 -15 12 -10 -2 4 -9 1 -18 -5 -21 -7 -3 -12 5 -12 18 0 13 3 21 8 18
4 -2 7 1 7 6 0 6 -5 11 -11 11 -8 0 -8 5 1 15 10 12 9 16 -3 21 -19 7 -28 39
-14 53 8 8 6 11 -8 12 -11 1 -24 1 -28 0 -5 -1 -6 3 -2 9 3 5 1 10 -6 10 -7 0
-9 3 -6 6 4 4 13 1 22 -6 9 -7 18 -10 22 -6 3 3 1 6 -5 6 -7 0 -12 7 -12 16 0
8 -5 12 -11 8 -14 -8 -8 48 6 59 5 4 -3 5 -20 2 l-30 -6 25 16 c14 9 18 14 9
11 -11 -3 -21 4 -28 20 -14 32 -14 37 2 28 8 -5 8 -2 -2 9 -7 9 -19 17 -25 17
-6 0 -4 -5 4 -10 13 -8 13 -10 -2 -10 -9 0 -20 5 -23 10 -3 6 -1 10 5 10 6 0
8 4 5 10 -4 6 1 7 12 3 15 -6 16 -5 3 9 -8 9 -19 13 -25 10 -5 -3 -4 2 4 11
15 19 9 22 -18 7 -15 -8 -18 -5 -15 15 1 14 -2 27 -7 31 -5 3 -9 0 -9 -5 0 -6
-4 -11 -8 -11 -5 0 -9 7 -9 15 0 8 4 12 8 10 3 -3 9 5 12 17 4 14 3 18 -5 10
-11 -11 -51 16 -42 30 3 4 0 8 -5 8 -16 0 -13 -16 4 -30 8 -7 15 -18 14 -24 0
-7 -2 -6 -6 2 -2 6 -10 9 -15 6 -6 -4 -8 -2 -4 4 11 19 -12 23 -30 5 -17 -17
-17 -17 -11 -1 4 12 0 21 -13 28 -27 14 -34 12 -20 -5 16 -19 3 -20 -16 0 -9
8 -13 19 -10 24 7 11 -28 43 -37 34 -11 -10 -8 -48 4 -60 8 -8 8 -13 0 -18 -6
-3 -11 -3 -10 2 4 21 -2 24 -18 12 -16 -12 -17 -12 -5 2 9 12 10 23 2 40 -10
22 -10 22 -6 2 2 -12 -2 -27 -10 -34 -8 -6 -11 -16 -7 -22 3 -6 1 -7 -6 -3 -6
4 -9 11 -6 16 2 4 -6 10 -19 12 -19 4 -23 1 -18 -11 5 -14 4 -14 -11 -2 -15
12 -17 12 -11 -2 4 -12 1 -14 -15 -10 -11 3 -19 8 -17 12 3 4 -4 7 -15 7 -10
0 -19 -4 -19 -8 0 -4 6 -8 14 -8 21 0 30 -20 17 -33 -9 -9 -11 -7 -6 8 6 18 5
18 -13 -2 -11 -13 -23 -23 -26 -23 -4 0 -2 10 4 23 10 20 9 20 -9 -3 -26 -32
-26 -43 -1 -35 11 3 20 3 20 -2 0 -13 -42 -14 -57 -1 -11 9 -12 6 -4 -15 7
-17 7 -28 1 -32 -6 -4 -10 -5 -11 -3 0 2 -2 11 -4 21 -2 11 -7 22 -11 25 -4 4
-4 -1 -1 -10 3 -10 1 -20 -5 -24 -7 -4 -2 -12 13 -20 21 -12 21 -13 4 -11 -11
1 -27 6 -35 11 -8 4 -5 -1 7 -12 l22 -20 -29 -12 c-29 -12 -41 -30 -20 -30 6
0 10 5 10 10 0 6 5 10 11 10 8 0 7 -5 -2 -16 -10 -13 -10 -17 2 -26 11 -8 11
-9 -4 -4 -26 9 -43 13 -34 9 4 -3 7 -12 7 -22 0 -9 3 -21 8 -27 4 -5 -1 -1
-10 9 -16 17 -17 17 -15 -3 1 -11 4 -20 7 -20 3 0 11 -9 18 -20 13 -21 12 -21
-15 -3 l-28 17 20 -23 20 -24 -25 7 c-24 7 -24 6 -6 -8 10 -9 22 -13 27 -11 4
3 11 1 14 -5 4 -6 3 -10 -2 -9 -23 4 -43 -2 -38 -11 4 -6 12 -7 18 -3 7 4 6 0
-2 -10 -7 -9 -9 -17 -4 -17 5 0 10 -7 10 -15 0 -13 -4 -12 -20 2 -19 18 -19
17 -6 -4 8 -13 17 -23 20 -23 4 0 9 -7 13 -15 5 -13 2 -14 -17 -4 -19 11 -20
10 -10 -3 7 -8 9 -18 5 -23 -4 -4 4 -4 17 0 15 5 21 4 17 -3 -4 -6 4 -21 16
-33 23 -21 23 -21 1 -10 -14 7 -24 8 -28 1 -3 -5 1 -10 9 -10 8 0 20 -9 26
-20 8 -16 8 -20 -4 -20 -8 0 -18 -5 -22 -12 -4 -7 -3 -8 4 -4 6 3 16 -3 22
-14 8 -15 8 -20 -2 -20 -7 0 0 -9 16 -19 17 -11 33 -18 36 -16 4 2 7 -2 7 -10
0 -12 -3 -12 -15 -2 -13 10 -14 9 -3 -11 6 -12 9 -27 5 -33 -3 -6 1 -9 9 -7 9
2 16 -1 16 -7 1 -5 -3 -11 -9 -11 -5 -1 -13 -2 -17 -3 -3 0 1 -9 9 -18 9 -10
14 -26 13 -36 -3 -15 -1 -16 11 -6 17 14 18 23 2 13 -7 -4 -10 -4 -6 1 4 4 2
15 -4 24 -8 10 -5 9 9 -3 18 -15 20 -22 12 -38 -8 -15 -8 -19 0 -14 6 4 11 2
11 -3 0 -6 -5 -11 -11 -11 -5 0 -7 -4 -4 -10 12 -19 23 -10 20 15 -1 14 1 27
5 30 4 2 6 -13 5 -33 -1 -45 12 -75 28 -65 7 4 4 -5 -6 -20 -14 -22 -15 -25
-2 -20 21 8 47 -27 33 -44 -7 -9 -7 -13 1 -13 6 0 11 -5 11 -11 0 -5 -4 -8 -8
-5 -4 2 -8 -4 -8 -14 0 -14 4 -16 12 -9 8 7 15 6 20 -2 5 -8 3 -9 -5 -5 -18
11 -10 -26 9 -41 11 -8 19 -8 30 0 12 9 13 9 3 -3 -16 -18 -17 -34 -1 -24 7 5
8 3 3 -6 -7 -11 -12 -9 -23 8 -8 12 -19 22 -24 22 -9 0 3 -17 36 -50 10 -11
19 -33 20 -50 1 -27 7 -35 29 -31 4 0 6 -5 5 -11 -2 -7 3 -12 11 -10 12 3 12
0 2 -12 -10 -12 -9 -16 6 -25 15 -9 13 -10 -12 -6 -30 6 -30 6 -6 -8 16 -10
20 -16 12 -21 -8 -6 -9 -12 -2 -20 6 -7 8 -16 4 -20 -4 -4 0 -4 9 -1 23 9 30
-21 10 -42 -16 -16 -16 -16 1 -10 10 4 23 7 28 7 6 0 7 5 3 12 -5 7 -3 8 5 4
9 -6 8 -13 -5 -27 -14 -15 -15 -22 -5 -32 10 -9 11 -8 6 5 -4 10 -3 18 2 18 5
0 10 -6 10 -12 0 -7 3 -20 5 -28 3 -8 3 -12 1 -7 -8 12 -20 8 -20 -7 0 -8 3
-15 6 -14 20 2 30 -6 51 -44 12 -22 18 -38 11 -34 -6 4 -11 2 -11 -4 0 -6 -6
-8 -12 -4 -8 4 -9 3 -5 -2 5 -5 16 -9 25 -9 9 0 17 -7 18 -15 0 -8 2 -17 3
-20 9 -19 9 -50 0 -50 -5 0 -8 4 -5 8 3 5 -1 9 -9 9 -11 0 -12 -3 -3 -14 7 -8
21 -12 33 -9 28 7 37 -2 23 -24 -9 -14 -8 -22 6 -35 9 -10 14 -20 11 -23 -3
-4 -10 0 -15 8 -6 8 -10 10 -10 4 0 -16 25 -35 34 -27 4 4 4 0 0 -10 -3 -9
-11 -14 -18 -10 -8 4 -8 2 1 -7 6 -7 9 -20 6 -29 -4 -13 -3 -14 5 -1 6 8 8 19
4 25 -3 5 3 3 14 -5 29 -22 30 -24 12 -17 -10 4 -18 2 -18 -3 0 -6 5 -10 10
-10 6 0 10 -5 10 -11 0 -5 -4 -7 -10 -4 -6 3 -7 -1 -3 -10 4 -13 7 -14 14 -3
7 11 10 10 21 -1 10 -10 10 -12 1 -7 -7 4 -13 4 -14 -1 0 -4 -2 -16 -4 -25 -2
-13 3 -18 18 -19 12 0 16 -3 10 -6 -7 -2 -13 -12 -13 -20 0 -13 2 -13 17 -2
15 13 15 12 4 -8 -9 -19 -9 -23 2 -23 8 0 22 -10 33 -22 11 -14 13 -18 3 -10
-13 10 -16 8 -16 -18 0 -25 3 -28 15 -17 13 10 14 9 4 -9 -9 -18 -8 -26 8 -44
11 -13 24 -19 32 -14 10 5 10 4 1 -6 -9 -10 -16 -10 -26 -2 -10 9 -14 8 -14
-3 0 -7 5 -13 11 -12 6 1 10 -4 8 -12 -2 -11 0 -12 11 -2 12 9 16 8 21 -4 3
-9 2 -13 -4 -10 -6 3 -10 1 -10 -4 0 -6 5 -11 12 -11 9 0 9 -3 0 -12 -17 -17
-15 -28 6 -28 15 0 15 2 2 11 -12 8 -12 10 -1 7 8 -2 16 -12 18 -21 1 -9 5
-25 7 -34 2 -11 11 -17 22 -15 11 2 15 0 8 -5 -16 -12 -24 -42 -13 -49 5 -3 9
-15 7 -27 -2 -17 1 -21 16 -19 17 3 18 2 7 -12 -8 -10 -9 -16 -3 -16 6 0 9 -8
7 -18 -2 -11 3 -19 11 -19 8 0 14 4 14 9 0 4 -5 8 -12 8 -6 0 -8 3 -4 7 4 5
14 -1 22 -11 17 -23 18 -36 3 -36 -5 0 -7 4 -4 10 4 6 -1 7 -11 3 -11 -4 -13
-8 -6 -11 7 -2 12 -10 12 -17 0 -12 27 -30 41 -27 8 1 5 -31 -4 -46 -5 -8 -3
-10 6 -6 8 3 18 0 23 -7 4 -7 3 -10 -3 -6 -5 3 -10 0 -10 -7 0 -8 8 -11 18 -9
9 3 19 0 23 -5 3 -5 -1 -9 -9 -8 -27 2 -16 -18 12 -22 31 -4 47 -22 33 -36 -6
-6 -10 -15 -10 -21 0 -5 5 -3 10 5 6 10 10 11 10 3 0 -7 7 -13 16 -13 8 0 12
-5 9 -10 -4 -6 -11 -8 -16 -5 -15 10 -10 -2 8 -16 9 -8 14 -9 10 -3 -8 14 58
13 70 -1 5 -4 2 -5 -4 -1 -7 4 -13 3 -13 -2 0 -13 25 -33 33 -27 4 3 5 2 2 -2
-8 -10 -36 -13 -30 -2 4 5 -1 6 -10 3 -19 -8 -15 -13 15 -19 13 -3 30 1 37 7
11 9 13 8 11 -3 -2 -8 3 -13 10 -11 8 1 11 -2 7 -8 -5 -8 -11 -8 -19 -1 -9 8
-13 7 -13 -4 0 -8 4 -12 9 -9 4 3 8 -1 8 -8 0 -10 2 -10 8 -1 10 16 60 24 68
11 4 -7 2 -8 -4 -4 -19 11 -14 -5 6 -21 9 -8 12 -12 7 -9 -6 2 -17 0 -25 -6
-13 -8 -12 -9 2 -5 9 3 19 3 23 -1 4 -4 11 -7 15 -7 5 0 16 -9 25 -20 11 -15
13 -16 9 -3 -4 13 -1 15 15 11 12 -3 21 -1 21 4 0 6 -11 9 -24 8 -19 -2 -23 1
-18 13 3 10 7 12 10 4 2 -7 8 -12 13 -12 6 0 7 6 3 12 -5 7 5 2 21 -10 19 -15
32 -19 39 -12 17 17 30 11 15 -7 -13 -15 -12 -15 8 -3 12 8 20 17 18 20 -6 9
27 6 43 -4 7 -4 10 -11 7 -16 -7 -11 22 -7 32 5 4 4 3 6 -2 2 -16 -8 -38 30
-23 39 6 4 8 3 4 -4 -3 -6 -2 -13 4 -17 5 -3 10 -2 10 2 0 5 8 13 18 20 15 9
19 8 19 -2 0 -8 -3 -13 -6 -12 -7 2 -11 -8 -11 -25 0 -7 9 0 20 17 15 23 17
32 7 45 -10 13 -10 13 5 2 9 -8 14 -21 12 -30 -5 -15 -4 -14 6 1 6 9 16 14 22
11 7 -4 8 -2 4 5 -4 6 -12 9 -17 6 -5 -4 -9 -1 -9 4 0 14 6 14 32 0 17 -9 20
-9 15 3 -3 8 -1 21 4 29 7 11 9 11 9 1 0 -7 5 -10 12 -6 7 4 8 3 4 -5 -4 -6
-12 -8 -18 -5 -7 5 -8 2 -3 -5 5 -9 15 -4 36 19 31 33 37 55 17 63 -10 4 -10
6 -1 6 6 1 15 -4 18 -10 5 -6 12 -4 21 8 13 17 14 17 8 -2 -5 -16 -4 -17 4 -5
7 9 7 19 2 25 -6 7 -4 19 5 32 8 12 12 23 7 26 -4 2 -1 2 7 0 20 -5 41 16 41
42 0 13 6 26 13 28 10 4 10 6 0 6 -7 1 -13 6 -13 12 0 5 5 7 12 3 8 -5 9 -2 5
9 -3 10 -2 17 4 17 6 0 7 5 4 10 -4 6 -11 7 -17 4 -7 -4 -8 -2 -4 5 4 6 12 8
18 5 8 -5 9 -1 4 11 -5 15 -4 16 9 5 8 -7 15 -11 16 -9 0 2 2 12 4 23 2 10 8
23 14 29 7 7 7 16 -1 30 -9 17 -8 19 8 13 18 -6 18 -5 2 8 -22 16 -24 30 -3
23 21 -9 29 11 11 29 -20 19 -21 31 -2 15 11 -9 15 -8 20 4 3 9 10 13 16 10 6
-3 7 1 4 10 -6 14 -8 14 -21 -2 -13 -17 -13 -16 -4 3 6 12 8 24 5 27 -3 3 0 8
7 13 8 4 10 3 5 -4 -4 -7 -3 -12 2 -12 6 0 12 7 16 15 3 8 1 15 -3 15 -5 0
-11 7 -15 15 -5 13 -2 14 17 4 12 -6 19 -8 15 -4 -4 5 -2 15 5 23 7 10 8 13 1
9 -7 -4 -14 2 -17 13 -6 22 8 28 16 8 3 -8 6 -5 6 5 1 10 6 15 11 12 6 -3 10
-1 10 5 0 7 -8 9 -19 5 -11 -3 -22 -1 -26 4 -4 7 1 8 11 4 12 -4 15 -3 10 6
-5 8 0 10 19 7 22 -4 25 -3 15 10 -15 17 -24 19 -14 2 4 -7 3 -8 -5 -4 -15 10
-4 27 16 24 9 -2 18 4 20 12 4 12 2 12 -5 2 -7 -10 -11 -10 -22 3 -11 13 -11
16 0 13 7 -2 15 3 18 11 3 9 0 11 -8 6 -9 -5 -11 -4 -6 3 4 7 14 12 22 12 8 0
13 4 9 9 -3 6 3 14 12 20 10 6 13 11 7 11 -5 0 -19 7 -30 15 -16 13 -17 14 -1
9 12 -4 17 -2 15 7 -2 10 5 13 22 11 14 -2 21 1 15 5 -17 14 -41 47 -27 39 8
-5 12 -1 12 11 0 15 2 16 10 3 8 -12 10 -11 10 5 0 11 6 29 14 40 7 11 12 28
10 38 -1 10 3 33 11 50 7 18 11 39 10 48 -2 12 3 15 19 13 11 -2 15 -2 9 2
-17 8 -17 28 0 21 8 -3 14 1 14 9 0 7 -3 11 -7 9 -4 -2 -7 2 -7 10 0 10 5 11
19 4 10 -6 15 -15 12 -21 -5 -7 -2 -8 5 -3 9 5 10 10 2 18 -15 15 -14 30 2 21
6 -4 5 1 -4 12 -16 19 -15 59 1 49 12 -7 24 14 26 47 2 19 -2 25 -12 21 -8 -3
-14 0 -14 6 0 6 6 10 13 9 6 -2 11 5 11 14 -1 11 4 14 14 11 12 -5 14 0 10 25
-3 24 -2 29 8 21 7 -6 14 -6 18 -1 3 6 -1 13 -9 16 -13 4 -14 10 -5 26 7 13 7
20 0 20 -5 0 -2 9 7 20 13 14 20 17 30 8 11 -9 12 -7 6 8 -6 17 -5 18 13 4 18
-14 18 -14 5 2 -7 10 -17 15 -22 12 -5 -3 -9 0 -9 5 0 6 9 11 20 11 11 0 20 5
20 11 0 5 -4 7 -10 4 -5 -3 -10 3 -10 14 0 12 5 21 11 21 5 0 7 -5 3 -12 -4
-7 -3 -8 5 -4 9 6 9 11 0 22 -6 8 -8 14 -3 14 5 0 2 5 -6 10 -9 6 -10 10 -3
10 6 0 19 -7 27 -16 9 -8 16 -11 16 -5 0 5 -5 13 -10 16 -15 9 -1 27 16 21 22
-8 17 2 -7 15 -17 9 -20 8 -14 -2 5 -7 4 -10 -3 -5 -5 3 -12 1 -14 -6 -3 -8
-7 -6 -11 5 -4 10 -2 16 6 14 7 -1 11 4 9 12 -3 12 -1 12 13 1 14 -12 15 -10
11 14 -3 15 -1 24 5 21 5 -4 7 -11 4 -16 -4 -5 2 -6 11 -2 11 4 13 8 6 11 -7
2 -12 8 -12 14 0 6 8 7 18 4 15 -5 14 -4 -2 9 -10 8 -24 12 -29 8 -6 -3 -2 5
9 20 10 14 26 27 34 30 11 3 15 15 14 40 -1 20 2 34 7 31 5 -3 6 -10 3 -16 -4
-7 -2 -8 5 -4 9 6 8 14 -4 33 -16 24 -16 24 5 13 18 -10 21 -10 14 2 -13 21
-15 48 -3 48 5 0 7 -4 4 -10 -3 -5 -1 -10 4 -10 6 0 11 3 12 8 3 29 9 46 21
53 7 4 9 11 5 15 -4 4 0 19 9 33 15 24 15 25 0 10 -10 -9 -18 -22 -20 -30 -1
-8 -7 -24 -14 -35 -6 -12 -8 -25 -4 -30 4 -5 -1 -2 -10 5 -19 14 -25 26 -8 16
8 -5 15 10 8 18 -2 1 7 17 20 34 13 18 21 37 17 42 -3 6 6 8 22 5 27 -4 27 -3
7 9 -18 10 -19 14 -9 24 7 6 15 10 17 8 2 -2 5 7 6 20 1 13 -5 28 -14 33 -15
8 -15 10 0 15 10 4 15 3 12 -2 -6 -9 35 -24 43 -16 2 3 -1 5 -8 5 -7 0 -9 5
-5 12 4 6 3 8 -3 5 -6 -4 -14 0 -17 9 -4 10 -2 13 6 8 8 -5 9 -2 5 9 -4 10 -2
17 5 17 7 0 7 4 -1 14 -9 11 -6 13 14 11 14 -2 23 1 19 6 -3 5 -10 6 -16 3 -7
-5 -9 -1 -5 9 3 9 1 18 -6 21 -7 3 -3 4 9 1 13 -4 26 1 35 12 13 16 12 17 -3
4 -10 -7 -19 -12 -19 -10 -5 13 -5 49 -1 44 3 -2 12 3 20 13 9 11 9 8 -2 -10
-14 -24 -14 -27 -1 -22 8 4 15 13 15 21 0 8 4 12 9 9 5 -4 4 5 -2 18 -7 13
-16 22 -22 18 -5 -3 -3 3 6 14 9 10 15 26 14 35 -2 12 4 15 21 13 13 -1 22 2
18 7 -3 5 -9 7 -13 4 -5 -2 -17 2 -27 11 -18 14 -17 14 5 3 21 -10 23 -9 17 7
-6 16 -5 16 15 -2 12 -10 19 -14 16 -7 -4 6 0 16 9 21 15 8 15 10 0 15 -10 4
-14 3 -11 -2 3 -5 1 -12 -4 -15 -5 -4 -9 7 -9 24 1 20 4 27 9 18 7 -10 11 -10
21 1 7 8 8 11 2 8 -7 -4 -14 0 -18 8 -3 10 1 15 11 15 14 0 14 2 -3 15 -19 15
-19 15 0 8 16 -5 18 -3 13 11 -4 10 -3 15 3 11 14 -9 12 8 -2 24 -8 9 -8 11
-2 8 7 -4 15 0 18 9 3 8 10 12 16 9 6 -4 7 1 3 11 -3 10 -2 15 3 12 5 -4 8 15
7 43 -1 44 2 51 27 66 l28 16 -21 19 c-12 11 -15 16 -7 12 23 -12 39 -13 46
-3 3 5 2 9 -3 8 -4 -1 -15 -1 -23 0 -12 1 -11 4 3 12 15 9 16 13 5 27 -8 10
-9 13 -1 9 6 -4 14 -3 18 3 3 5 1 10 -4 10 -6 0 -11 5 -11 11 0 6 7 8 16 5 15
-6 15 -4 3 11 -12 15 -12 16 6 9 11 -4 16 -4 13 0 -4 4 -2 16 4 28 11 21 11
21 -11 2 -24 -22 -29 -15 -5 8 18 19 49 22 38 4 -5 -7 -3 -8 6 -3 10 6 9 11
-5 21 -10 7 -21 11 -26 9 -4 -3 -10 -1 -13 4 -4 5 5 8 18 7 14 -2 25 0 24 3 0
3 1 9 2 14 7 19 4 33 -7 45 -7 7 -13 19 -13 25 0 7 5 4 11 -5 5 -10 18 -18 27
-18 14 0 14 2 3 9 -17 11 -23 39 -11 46 5 3 7 -3 5 -13 -2 -11 3 -19 10 -19 8
0 11 5 8 11 -4 6 -8 19 -8 29 -1 14 3 17 19 13 19 -4 19 -3 -4 16 l-25 21 25
-8 c14 -4 22 -4 18 0 -4 5 -3 14 3 22 9 9 8 13 0 13 -6 0 -11 -4 -11 -10 0 -5
-4 -10 -10 -10 -5 0 -1 16 10 35 11 20 15 37 10 40 -13 8 -13 25 1 25 5 0 7
-5 3 -12 -4 -7 -3 -8 4 -4 6 4 9 13 6 21 -4 8 -11 12 -18 8 -6 -4 -5 1 3 10 7
9 17 15 21 12 5 -3 7 3 6 12 -2 9 -9 19 -17 21 -12 3 -12 2 0 -6 8 -6 9 -12 3
-16 -5 -3 -13 1 -16 10 -9 22 -8 24 9 24 8 0 15 4 15 10 0 5 -6 9 -12 7 -8 -1
-13 9 -13 28 0 17 -4 36 -9 44 -6 10 -6 12 2 7 7 -4 19 -3 28 2 15 8 15 10 0
15 -11 5 -15 3 -10 -5 4 -7 3 -8 -5 -4 -8 5 -9 12 -2 20 6 7 6 17 1 26 -13 20
-13 73 0 65 16 -10 11 1 -7 16 -11 10 -14 10 -9 2 4 -7 2 -13 -3 -13 -15 0
-14 13 2 29 10 11 9 13 -5 8 -20 -7 -38 19 -30 42 2 8 0 11 -6 7 -7 -4 -9 5
-6 24 4 21 1 32 -10 36 -9 3 -16 11 -16 16 0 6 7 7 16 4 8 -3 12 -2 9 4 -3 6
-13 10 -21 10 -8 0 -13 4 -10 8 3 5 -1 9 -9 10 -8 1 -21 3 -28 4 -16 2 -18 30
-3 41 6 4 -2 5 -18 1 -26 -6 -28 -5 -21 16 4 13 3 20 -2 17 -5 -3 -15 -2 -23
3 -11 7 -11 11 -1 24 9 11 10 16 2 16 -6 0 -11 -5 -11 -11 0 -8 -4 -8 -14 0
-10 8 -16 9 -21 1 -9 -15 -21 -12 -23 5 -1 8 -3 22 -4 30 -1 8 -5 15 -10 15
-5 0 -6 -12 -4 -26 4 -20 2 -23 -8 -15 -7 6 -17 7 -21 3 -5 -4 -4 0 1 8 4 8 9
20 10 26 2 15 -378 16 -388 0 -6 -8 -8 -7 -8 2 0 6 -4 12 -10 12 -5 0 -7 -7
-4 -15 5 -11 2 -13 -10 -9 -9 3 -13 10 -10 15 6 11 0 12 -9 2z m428 -13 c3 -5
1 -10 -4 -10 -6 0 -11 5 -11 10 0 6 2 10 4 10 3 0 8 -4 11 -10z m-445 -45 c11
-13 10 -14 -4 -9 -9 3 -16 10 -16 15 0 13 6 11 20 -6z m540 -16 c0 -5 -4 -9
-8 -9 -5 0 -9 7 -9 15 0 8 4 12 9 9 4 -3 8 -9 8 -15z m116 -110 c3 -6 2 -15
-4 -21 -6 -6 -12 -6 -17 3 -5 8 -4 10 3 5 7 -4 12 -3 12 3 0 5 -6 12 -12 14
-10 4 -10 6 -1 6 6 1 15 -4 19 -10z m38 -740 c-3 -5 -10 -7 -15 -3 -5 3 -7 10
-3 15 3 5 10 7 15 3 5 -3 7 -10 3 -15z m-1084 -69 c0 -5 -4 -10 -10 -10 -5 0
-10 5 -10 10 0 6 5 10 10 10 6 0 10 -4 10 -10z m-1290 -115 c10 -12 10 -15 -4
-15 -9 0 -16 7 -16 15 0 8 2 15 4 15 2 0 9 -7 16 -15z m1236 -12 c-10 -10 -19
5 -10 18 6 11 8 11 12 0 2 -7 1 -15 -2 -18z m-13 -27 c4 -10 1 -13 -8 -9 -8 3
-12 9 -9 14 7 12 11 11 17 -5z m1052 -18 c-9 -6 -19 -7 -22 -4 -4 3 -1 6 6 6
7 0 9 4 6 10 -4 6 1 7 11 3 15 -6 15 -7 -1 -15z m-50 -128 c3 -5 1 -10 -4 -10
-6 0 -11 5 -11 10 0 6 2 10 4 10 3 0 8 -4 11 -10z m-1103 -137 c-6 -2 -10 -9
-7 -13 3 -5 1 -11 -4 -14 -7 -5 -8 11 -2 32 1 1 7 2 14 1 9 0 9 -2 -1 -6z m2
-59 c3 -8 2 -12 -4 -9 -6 3 -10 10 -10 16 0 14 7 11 14 -7z m-24 -3 c0 -5 -7
-12 -16 -15 -14 -5 -15 -4 -4 9 14 17 20 19 20 6z m-720 -197 c0 -8 -19 -13
-24 -6 -3 5 1 9 9 9 8 0 15 -2 15 -3z m-665 -105 c-3 -4 0 -10 5 -12 7 -4 6
-5 0 -3 -7 1 -12 6 -12 11 0 6 -4 19 -10 30 -9 19 -9 19 6 1 9 -10 13 -22 11
-27z m2325 -38 c0 -5 -6 -14 -14 -20 -12 -10 -14 -9 -11 6 2 10 4 19 4 21 2 6
21 1 21 -7z m-1505 -261 c3 -6 -1 -7 -9 -4 -18 7 -21 14 -7 14 6 0 13 -4 16
-10z m1392 -66 c-3 -3 -12 -4 -19 -1 -8 3 -5 6 6 6 11 1 17 -2 13 -5z m-1337
-94 c6 -11 8 -20 6 -20 -3 0 -10 9 -16 20 -6 11 -8 20 -6 20 3 0 10 -9 16 -20z
m220 -114 c0 -3 -4 -8 -10 -11 -5 -3 -10 -1 -10 4 0 6 5 11 10 11 6 0 10 -2
10 -4z m-800 -126 c0 -5 -4 -10 -10 -10 -5 0 -10 5 -10 10 0 6 5 10 10 10 6 0
10 -4 10 -10z m680 -15 c0 -8 -2 -15 -4 -15 -2 0 -6 7 -10 15 -3 8 -1 15 4 15
6 0 10 -7 10 -15z m1045 -163 c-3 -3 -11 0 -18 7 -9 10 -8 11 6 5 10 -3 15 -9
12 -12z m5 -16 c0 -11 -19 -15 -25 -6 -3 5 1 10 9 10 9 0 16 -2 16 -4z m-35
-74 c-3 -3 -11 0 -18 7 -9 10 -8 11 6 5 10 -3 15 -9 12 -12z m-90 -214 c-8 -5
-13 -13 -10 -18 3 -5 1 -11 -4 -14 -11 -7 -9 13 2 32 5 6 5 18 1 25 -5 7 -1 7
10 -2 15 -13 16 -15 1 -23z m-56 -175 c-6 -7 -17 -13 -23 -12 -7 0 -6 2 2 6 6
2 10 8 8 12 -3 4 1 8 9 8 11 0 12 -4 4 -14z m-1229 -109 c0 -2 -9 0 -20 6 -11
6 -20 13 -20 16 0 2 9 0 20 -6 11 -6 20 -13 20 -16z m75 -214 c-3 -5 -1 -10 6
-10 7 0 10 -3 6 -6 -9 -9 -28 6 -22 17 4 5 8 9 11 9 3 0 2 -4 -1 -10z m1002
-105 c-9 -7 -15 -14 -12 -17 3 -2 -2 -5 -12 -5 -13 0 -12 3 5 17 12 10 18 21
14 25 -4 5 -1 5 7 0 12 -7 11 -10 -2 -20z m-67 -173 c0 -13 -12 -22 -22 -16
-10 6 -1 24 13 24 5 0 9 -4 9 -8z m-106 -144 c-3 -4 -9 -8 -15 -8 -5 0 -9 4
-9 8 0 5 7 9 15 9 8 0 12 -4 9 -9z m-387 -88 c-1 -22 -23 -22 -23 0 0 9 6 17
12 17 7 0 12 -8 11 -17z m90 -15 c0 -8 -4 -12 -9 -9 -5 3 -6 10 -3 15 9 13 12
11 12 -6z"/>
<path d="M3954 4969 c-4 -7 -3 -9 4 -5 5 3 13 0 15 -6 4 -9 6 -10 6 -1 1 17
-16 25 -25 12z"/>
<path d="M4706 4968 c3 -5 10 -6 15 -3 13 9 11 12 -6 12 -8 0 -12 -4 -9 -9z"/>
<path d="M3905 4851 c4 -8 2 -17 -6 -22 -9 -6 -10 -9 -2 -9 19 0 27 21 13 33
-10 9 -11 9 -5 -2z"/>
<path d="M4796 4805 c4 -8 8 -15 10 -15 2 0 4 7 4 15 0 8 -4 15 -10 15 -5 0
-7 -7 -4 -15z"/>
<path d="M279 4803 c0 -5 -2 -18 -5 -30 -2 -13 0 -23 4 -23 4 0 8 14 8 30 1
17 0 30 -2 30 -2 0 -4 -3 -5 -7z"/>
<path d="M3810 4646 c0 -2 7 -9 15 -16 13 -11 14 -10 9 4 -5 14 -24 23 -24 12z"/>
<path d="M4855 4600 c3 -5 8 -10 11 -10 2 0 4 5 4 10 0 6 -5 10 -11 10 -5 0
-7 -4 -4 -10z"/>
<path d="M4843 4566 c-1 -11 1 -16 4 -9 2 7 11 9 19 6 7 -3 11 -10 7 -16 -3
-6 -1 -7 5 -3 16 10 15 11 -11 29 -21 14 -23 13 -24 -7z"/>
<path d="M3756 4448 c3 -5 10 -6 15 -3 13 9 11 12 -6 12 -8 0 -12 -4 -9 -9z"/>
<path d="M3746 4387 c3 -10 9 -15 12 -12 3 3 0 11 -7 18 -10 9 -11 8 -5 -6z"/>
<path d="M270 4346 c0 -2 7 -7 16 -10 8 -3 12 -2 9 4 -6 10 -25 14 -25 6z"/>
<path d="M1391 4287 c2 -1 13 -9 24 -17 19 -14 19 -14 6 3 -7 9 -18 17 -24 17
-6 0 -8 -1 -6 -3z"/>
<path d="M3645 4160 c-3 -5 -1 -10 4 -10 6 0 11 5 11 10 0 6 -2 10 -4 10 -3 0
-8 -4 -11 -10z"/>
<path d="M342 4117 c10 -8 14 -18 10 -22 -4 -5 -1 -5 6 -1 17 10 15 14 -10 26
-21 10 -21 10 -6 -3z"/>
<path d="M1446 4108 c3 -5 10 -6 15 -3 13 9 11 12 -6 12 -8 0 -12 -4 -9 -9z"/>
<path d="M2418 4017 c8 -9 11 -20 8 -25 -7 -11 31 -9 41 3 5 4 2 5 -4 1 -7 -4
-13 -3 -13 1 0 5 -10 14 -22 22 -21 13 -22 13 -10 -2z"/>
<path d="M2323 3991 c0 -11 5 -18 9 -15 4 3 5 11 1 19 -7 21 -12 19 -10 -4z"/>
<path d="M2475 3981 c-6 -11 13 -26 22 -17 4 3 0 6 -8 6 -11 0 -11 2 1 10 9 6
10 10 3 10 -6 0 -14 -4 -18 -9z"/>
<path d="M4668 3913 c10 -4 10 -8 0 -21 -12 -15 -11 -16 4 -3 19 14 15 32 -5
30 -8 0 -8 -2 1 -6z"/>
<path d="M2595 3880 c3 -5 8 -10 11 -10 2 0 4 5 4 10 0 6 -5 10 -11 10 -5 0
-7 -4 -4 -10z"/>
<path d="M2738 3583 c6 -2 9 -10 6 -15 -4 -7 -2 -8 5 -4 13 9 5 26 -12 25 -9
0 -8 -2 1 -6z"/>
<path d="M4546 3568 c3 -5 10 -6 15 -3 13 9 11 12 -6 12 -8 0 -12 -4 -9 -9z"/>
<path d="M4535 3540 c3 -5 8 -10 11 -10 2 0 4 5 4 10 0 6 -5 10 -11 10 -5 0
-7 -4 -4 -10z"/>
<path d="M1665 3521 c-6 -11 13 -26 22 -17 4 3 1 6 -6 6 -7 0 -9 5 -6 10 3 6
4 10 1 10 -3 0 -7 -4 -11 -9z"/>
<path d="M2776 3498 c3 -5 10 -6 15 -3 13 9 11 12 -6 12 -8 0 -12 -4 -9 -9z"/>
<path d="M2039 3433 c-13 -16 -12 -17 4 -4 9 7 17 15 17 17 0 8 -8 3 -21 -13z"/>
<path d="M2060 3390 c-9 -6 -10 -10 -3 -10 6 0 15 5 18 10 8 12 4 12 -15 0z"/>
<path d="M2828 3333 c7 -3 16 -2 19 1 4 3 -2 6 -13 5 -11 0 -14 -3 -6 -6z"/>
<path d="M3362 3324 c10 -10 20 -16 22 -13 3 3 -5 11 -17 18 -21 13 -21 12 -5
-5z"/>
<path d="M2093 3275 c0 -8 4 -12 9 -9 5 3 6 10 3 15 -9 13 -12 11 -12 -6z"/>
<path d="M1787 3195 c-4 -8 -3 -16 1 -19 4 -3 9 4 9 15 2 23 -3 25 -10 4z"/>
<path d="M1856 3033 c-6 -14 -5 -15 5 -6 7 7 10 15 7 18 -3 3 -9 -2 -12 -12z"/>
<path d="M2220 2988 c-13 -8 -12 -9 2 -5 9 3 19 1 21 -6 2 -7 7 -9 11 -6 13
12 -19 28 -34 17z"/>
<path d="M4300 2915 c-7 -8 -9 -15 -6 -15 4 0 14 7 22 15 9 8 11 15 6 15 -5 0
-15 -7 -22 -15z"/>
<path d="M785 2891 c-3 -5 0 -13 6 -17 7 -4 9 -3 5 4 -3 5 0 13 6 15 9 4 10 6
1 6 -6 1 -14 -3 -18 -8z"/>
<path d="M3026 2798 c3 -4 9 -8 15 -8 5 0 9 4 9 8 0 5 -7 9 -15 9 -8 0 -12 -4
-9 -9z"/>
<path d="M1940 2785 c-9 -11 -10 -19 -3 -26 8 -8 13 -7 17 0 4 6 2 11 -4 11
-6 0 -8 5 -5 10 4 6 11 7 17 4 7 -4 8 -2 4 4 -9 15 -11 15 -26 -3z"/>
<path d="M830 2766 c0 -2 7 -7 16 -10 8 -3 12 -2 9 4 -6 10 -25 14 -25 6z"/>
<path d="M2315 2760 c3 -5 8 -10 11 -10 2 0 4 5 4 10 0 6 -5 10 -11 10 -5 0
-7 -4 -4 -10z"/>
<path d="M3045 2760 c-3 -5 -1 -10 4 -10 6 0 11 5 11 10 0 6 -2 10 -4 10 -3 0
-8 -4 -11 -10z"/>
<path d="M2346 2705 c4 -8 11 -15 16 -15 6 0 5 6 -2 15 -7 8 -14 15 -16 15 -2
0 -1 -7 2 -15z"/>
<path d="M856 2683 c-6 -14 -5 -15 5 -6 7 7 10 15 7 18 -3 3 -9 -2 -12 -12z"/>
<path d="M4198 2638 c-8 -19 17 -33 28 -16 4 6 3 8 -4 4 -6 -3 -12 2 -14 11
-3 16 -4 17 -10 1z"/>
<path d="M895 2589 c-4 -6 -4 -13 -1 -16 3 -4 6 -1 6 6 0 7 5 9 12 5 7 -4 8
-3 4 4 -9 15 -13 15 -21 1z"/>
<path d="M2388 2573 c7 -3 16 -2 19 1 4 3 -2 6 -13 5 -11 0 -14 -3 -6 -6z"/>
<path d="M4167 2496 c-10 -8 -14 -16 -10 -19 5 -3 14 3 21 14 14 22 13 23 -11
5z"/>
<path d="M2056 2451 c-4 -5 3 -7 14 -4 23 6 26 13 6 13 -8 0 -17 -4 -20 -9z"/>
<path d="M2450 2440 c8 -5 11 -10 6 -10 -5 0 -3 -6 3 -13 6 -8 9 -16 6 -19 -3
-2 2 -5 10 -5 8 0 15 4 15 9 0 4 -5 8 -12 8 -6 0 -8 3 -5 7 9 8 -12 33 -27 33
-6 0 -4 -5 4 -10z"/>
<path d="M960 2430 c-9 -6 -10 -10 -3 -10 6 0 15 5 18 10 8 12 4 12 -15 0z"/>
<path d="M4116 2382 c-3 -5 1 -9 9 -9 8 0 12 4 9 9 -3 4 -7 8 -9 8 -2 0 -6 -4
-9 -8z"/>
<path d="M2494 2349 c-3 -6 2 -18 12 -27 17 -16 17 -16 5 0 -7 9 -10 22 -6 28
3 5 4 10 1 10 -3 0 -8 -5 -12 -11z"/>
<path d="M990 2321 c0 -10 19 -25 25 -20 1 2 -3 10 -11 17 -8 7 -14 8 -14 3z"/>
<path d="M2535 2260 c-4 -6 -11 -8 -16 -5 -16 10 -10 -2 9 -16 9 -7 14 -9 10
-5 -4 5 0 15 10 22 9 8 12 14 5 14 -6 0 -15 -5 -18 -10z"/>
<path d="M1042 2204 c9 -3 15 -11 12 -18 -3 -7 3 -19 13 -27 16 -13 17 -12 5
2 -7 9 -11 23 -10 30 2 7 -6 14 -17 15 -14 2 -15 1 -3 -2z"/>
<path d="M4047 2196 c-4 -10 -1 -13 9 -9 7 3 14 9 14 14 0 14 -17 10 -23 -5z"/>
<path d="M4050 2159 c0 -5 5 -7 10 -4 6 3 10 8 10 11 0 2 -4 4 -10 4 -5 0 -10
-5 -10 -11z"/>
<path d="M1097 2045 c3 -8 9 -12 14 -9 12 7 11 11 -5 17 -10 4 -13 1 -9 -8z"/>
<path d="M3973 2007 c0 -8 6 -14 14 -14 9 0 10 4 2 14 -6 7 -12 13 -14 13 -1
0 -2 -6 -2 -13z"/>
<path d="M2250 1872 c0 -17 21 -25 31 -13 5 6 6 9 3 6 -4 -3 -13 0 -21 6 -9 8
-13 8 -13 1z"/>
<path d="M1217 1716 c-4 -11 -1 -13 10 -9 12 5 14 3 8 -7 -5 -9 -4 -11 4 -6 9
6 9 11 0 22 -14 17 -16 17 -22 0z"/>
<path d="M2739 1703 c-13 -16 -12 -17 4 -4 9 7 17 15 17 17 0 8 -8 3 -21 -13z"/>
<path d="M2759 1698 c-6 -21 -5 -37 2 -32 5 3 9 0 9 -7 0 -7 3 -9 6 -6 4 4 2
13 -4 20 -7 8 -9 17 -5 20 3 4 3 7 0 7 -4 0 -7 -1 -8 -2z"/>
<path d="M2295 1661 c-3 -5 -2 -12 3 -15 5 -3 9 1 9 9 0 17 -3 19 -12 6z"/>
<path d="M2226 1471 c-3 -5 1 -11 9 -14 9 -4 12 -1 8 9 -6 16 -10 17 -17 5z"/>
<path d="M3793 1455 c0 -8 4 -12 9 -9 5 3 6 10 3 15 -9 13 -12 11 -12 -6z"/>
<path d="M1313 1445 c0 -8 4 -15 9 -15 4 0 8 4 8 9 0 6 -4 12 -8 15 -5 3 -9
-1 -9 -9z"/>
<path d="M2863 1429 c-1 -12 4 -19 15 -18 11 0 12 2 4 6 -6 2 -10 9 -7 13 3 5
2 11 -3 14 -4 2 -9 -4 -9 -15z"/>
<path d="M2202 1385 c-9 -18 -8 -26 1 -31 7 -4 9 -3 4 1 -4 5 0 19 8 32 9 13
12 23 7 23 -5 0 -14 -11 -20 -25z"/>
<path d="M2950 1312 c0 -5 7 -9 15 -9 8 0 12 4 9 9 -3 4 -9 8 -15 8 -5 0 -9
-4 -9 -8z"/>
<path d="M3706 1304 c-23 -23 -20 -30 4 -9 11 10 20 20 20 22 0 7 -9 2 -24
-13z"/>
<path d="M3050 1225 c0 -8 4 -15 10 -15 5 0 7 7 4 15 -4 8 -8 15 -10 15 -2 0
-4 -7 -4 -15z"/>
<path d="M1476 1167 c3 -10 9 -15 12 -12 3 3 0 11 -7 18 -10 9 -11 8 -5 -6z"/>
<path d="M3170 1145 c0 -8 4 -15 10 -15 5 0 7 7 4 15 -4 8 -8 15 -10 15 -2 0
-4 -7 -4 -15z"/>
<path d="M1894 1129 c-9 -16 2 -22 21 -11 15 8 16 10 1 15 -8 3 -18 2 -22 -4z"/>
<path d="M3394 1096 c-10 -8 -16 -18 -11 -22 4 -4 7 -2 7 4 0 7 7 12 15 12 8
0 15 5 15 10 0 13 -3 13 -26 -4z"/>
<path d="M3310 1080 c0 -5 5 -10 11 -10 5 0 7 5 4 10 -3 6 -8 10 -11 10 -2 0
-4 -4 -4 -10z"/>
<path d="M896 593 c-6 -14 -5 -15 5 -6 7 7 10 15 7 18 -3 3 -9 -2 -12 -12z"/>
<path d="M955 601 c-3 -5 -2 -12 3 -15 5 -3 9 1 9 9 0 17 -3 19 -12 6z"/>
<path d="M1195 601 c-3 -5 -2 -12 3 -15 5 -3 9 1 9 9 0 17 -3 19 -12 6z"/>
<path d="M1376 593 c-6 -14 -5 -15 5 -6 7 7 10 15 7 18 -3 3 -9 -2 -12 -12z"/>
<path d="M1435 601 c-3 -5 -2 -12 3 -15 5 -3 9 1 9 9 0 17 -3 19 -12 6z"/>
<path d="M1675 601 c-3 -5 -2 -12 3 -15 5 -3 9 1 9 9 0 17 -3 19 -12 6z"/>
<path d="M1856 593 c-6 -14 -5 -15 5 -6 7 7 10 15 7 18 -3 3 -9 -2 -12 -12z"/>
<path d="M2816 593 c-6 -14 -5 -15 5 -6 7 7 10 15 7 18 -3 3 -9 -2 -12 -12z"/>
<path d="M2875 601 c-3 -5 -2 -12 3 -15 5 -3 9 1 9 9 0 17 -3 19 -12 6z"/>
<path d="M3115 601 c-3 -5 -2 -12 3 -15 5 -3 9 1 9 9 0 17 -3 19 -12 6z"/>
<path d="M3296 593 c-6 -14 -5 -15 5 -6 7 7 10 15 7 18 -3 3 -9 -2 -12 -12z"/>
<path d="M3355 601 c-3 -5 -2 -12 3 -15 5 -3 9 1 9 9 0 17 -3 19 -12 6z"/>
<path d="M3595 601 c-3 -5 -2 -12 3 -15 5 -3 9 1 9 9 0 17 -3 19 -12 6z"/>
<path d="M3776 593 c-6 -14 -5 -15 5 -6 7 7 10 15 7 18 -3 3 -9 -2 -12 -12z"/>
<path d="M1916 575 c2 -19 -3 -25 -19 -27 -47 -3 -52 -4 -50 -16 2 -6 -4 -9
-12 -6 -8 4 -15 10 -15 16 0 5 4 7 9 3 5 -3 12 -1 16 5 4 6 11 8 16 5 5 -4 9
-1 9 4 0 14 -17 14 -26 0 -4 -8 -9 -7 -15 2 -6 10 -9 11 -9 2 0 -7 -4 -13 -10
-13 -5 0 -7 8 -4 18 5 15 4 15 -6 -1 -9 -14 -15 -16 -26 -6 -10 8 -18 9 -27 0
-8 -6 -17 -8 -21 -4 -4 4 -4 -1 0 -12 4 -11 4 -17 -1 -13 -4 4 -14 3 -22 -4
-8 -6 -13 -7 -12 -2 4 21 -2 26 -16 14 -8 -7 -15 -9 -15 -5 0 5 -9 0 -20 -10
-18 -17 -20 -17 -14 -2 3 9 10 17 14 17 13 0 20 29 9 35 -5 4 -8 1 -7 -7 2 -8
-8 -14 -24 -16 -17 -2 -28 1 -28 9 0 7 -3 9 -6 6 -4 -4 -1 -14 7 -24 9 -11 10
-14 2 -9 -9 5 -13 1 -14 -11 0 -14 -2 -13 -10 5 -5 13 -14 20 -20 16 -17 -10
-79 -14 -79 -4 0 5 9 7 20 5 12 -2 18 0 15 6 -4 5 -10 7 -15 4 -5 -3 -11 -1
-15 5 -3 5 -12 10 -18 10 -7 0 -6 -4 3 -10 11 -7 5 -10 -25 -11 -65 -3 -70 -4
-68 -17 2 -6 -4 -9 -12 -6 -8 4 -15 10 -15 16 0 5 4 7 9 3 5 -3 12 -1 16 5 4
6 11 8 16 5 5 -4 9 -1 9 4 0 14 -17 14 -26 0 -4 -8 -9 -7 -15 2 -6 10 -9 11
-9 2 0 -7 -4 -13 -10 -13 -5 0 -7 8 -4 18 5 15 4 15 -6 -1 -9 -14 -15 -16 -26
-6 -10 8 -18 9 -27 0 -8 -6 -17 -8 -21 -4 -4 4 -4 -1 0 -12 4 -11 4 -17 -1
-13 -4 4 -14 3 -22 -4 -8 -6 -13 -7 -12 -2 4 21 -2 26 -16 14 -8 -7 -15 -9
-15 -5 0 5 -9 0 -20 -10 -18 -17 -20 -17 -14 -2 3 9 10 17 14 17 13 0 20 29 9
35 -5 4 -8 1 -7 -7 2 -8 -8 -14 -24 -16 -17 -2 -28 1 -28 9 0 7 -3 9 -6 6 -4
-4 -1 -14 7 -24 9 -11 10 -14 2 -9 -9 5 -13 1 -14 -11 0 -14 -2 -13 -10 5 -5
13 -14 20 -20 16 -17 -10 -79 -14 -79 -4 0 5 9 7 20 5 12 -2 18 0 15 6 -4 5
-10 7 -15 4 -5 -3 -11 -1 -15 5 -3 5 -12 10 -18 10 -7 0 -6 -4 3 -10 11 -7 5
-10 -25 -11 -65 -3 -70 -4 -68 -17 2 -6 -4 -9 -12 -6 -8 4 -15 10 -15 16 0 5
4 7 9 3 5 -3 12 -1 16 5 4 6 11 8 16 5 5 -4 9 -1 9 4 0 14 -17 14 -26 0 -4 -8
-9 -7 -15 2 -6 10 -9 11 -9 2 0 -7 -4 -13 -10 -13 -5 0 -7 8 -4 18 5 15 4 15
-6 -1 -11 -18 -12 -18 -33 0 -11 10 -18 13 -15 8 4 -6 0 -18 -7 -28 -11 -16
-13 -16 -19 -2 -3 9 -2 13 4 10 6 -3 10 -2 10 3 0 6 -6 12 -14 15 -10 4 -13
-1 -12 -18 3 -20 0 -22 -23 -18 -34 7 -43 7 -64 -2 -10 -4 -17 -3 -17 5 0 6 4
9 8 6 4 -2 14 -1 21 4 15 9 6 30 -12 30 -7 0 -6 -4 3 -10 8 -5 12 -10 8 -11
-27 -5 -35 -4 -47 5 -11 8 -13 8 -7 -2 6 -9 3 -12 -10 -10 -11 2 -22 10 -26
18 -6 11 -7 10 -5 -5 1 -11 7 -20 14 -20 6 0 14 -2 16 -5 3 -3 -15 -5 -39 -5
-24 0 -44 3 -44 7 0 5 3 7 8 7 19 -3 32 2 32 12 0 8 -4 8 -14 0 -10 -8 -16 -8
-25 2 -6 8 -8 17 -4 20 3 4 1 7 -5 7 -6 0 -10 -9 -9 -19 0 -11 5 -17 11 -14 5
3 6 1 2 -6 -4 -6 -12 -9 -17 -5 -5 3 -16 0 -25 -6 -12 -10 -12 -16 -2 -29 12
-14 11 -14 -4 -2 -10 7 -16 16 -14 20 3 4 -4 8 -15 8 -17 2 -18 0 -4 -13 21
-22 19 -27 -7 -13 -22 12 -23 11 -5 -8 17 -19 17 -21 0 -34 -16 -13 -17 -12
-5 2 10 14 10 18 -1 22 -9 3 -12 -4 -11 -27 3 -43 2 -42 20 -20 14 18 14 17 2
-6 -7 -14 -11 -29 -10 -33 1 -5 -2 -6 -8 -2 -6 4 -10 -6 -10 -25 0 -17 3 -29
8 -27 4 3 8 -6 8 -19 l2 -24 -19 23 c-10 12 -18 16 -19 10 0 -7 3 -13 8 -13 4
0 12 -16 18 -35 11 -34 11 -35 -7 -19 -11 10 -19 12 -19 6 0 -6 6 -12 13 -15
9 -3 9 -7 -1 -19 -11 -14 -10 -19 8 -31 16 -11 20 -21 15 -36 -5 -16 -3 -20 9
-15 9 3 16 1 16 -6 0 -6 -4 -9 -8 -6 -4 3 -13 -10 -20 -27 l-12 -32 18 23 18
24 17 -26 c10 -14 23 -23 31 -20 8 3 16 -3 19 -15 3 -14 1 -18 -9 -14 -8 3
-12 8 -9 12 2 4 -2 8 -10 8 -19 0 -19 -5 0 -23 8 -9 15 -12 15 -8 0 3 7 1 16
-6 12 -11 15 -11 12 0 -4 17 53 22 65 6 5 -7 7 -4 3 7 -3 11 -2 16 4 12 6 -3
10 2 10 12 0 15 2 16 10 3 6 -10 6 -16 0 -18 -6 -2 -10 -8 -10 -14 0 -6 6 -5
15 2 13 11 18 10 31 -6 9 -10 12 -12 8 -4 -4 8 -14 24 -23 35 -10 13 -11 16
-1 8 21 -19 34 -16 19 5 -13 16 -12 16 6 1 11 -9 26 -14 33 -12 6 3 12 0 12
-7 0 -6 -5 -8 -12 -4 -9 5 -9 2 1 -9 14 -18 26 -24 17 -9 -8 13 107 10 117 -3
5 -6 7 -3 4 7 -6 17 15 42 26 31 13 -12 7 -25 -7 -20 -10 4 -13 1 -9 -9 4 -11
8 -12 19 -3 12 9 18 8 29 -7 15 -18 15 -18 8 1 -6 18 -5 19 12 5 15 -12 14 -7
-5 20 -19 28 -20 32 -4 19 10 -9 25 -14 32 -12 6 3 12 0 12 -7 0 -6 -5 -8 -12
-4 -8 5 -8 1 2 -12 22 -29 24 -30 18 -13 -5 13 4 15 51 15 31 0 60 -5 64 -11
5 -6 6 -3 3 8 -3 11 -2 16 4 12 6 -3 10 2 10 12 0 15 2 16 10 3 6 -10 6 -16 0
-18 -6 -2 -10 -8 -10 -14 0 -6 6 -5 15 2 13 11 18 10 31 -6 9 -10 12 -12 8 -4
-4 8 -14 24 -23 35 -10 13 -11 16 -1 8 21 -19 34 -16 19 5 -13 16 -12 16 6 1
11 -9 26 -14 33 -12 6 3 12 0 12 -7 0 -6 -4 -8 -10 -5 -16 10 -11 -1 7 -16 9
-8 14 -9 10 -3 -8 14 105 14 116 -1 5 -6 7 -3 4 7 -6 17 15 42 26 31 13 -12 7
-25 -7 -20 -10 4 -13 1 -9 -9 4 -11 8 -12 19 -3 12 9 18 8 29 -7 15 -18 15
-18 8 1 -6 18 -5 19 12 5 15 -12 14 -7 -5 20 -19 28 -20 32 -4 19 10 -9 25
-14 32 -12 6 3 12 0 12 -7 0 -6 -5 -8 -12 -4 -8 5 -8 1 2 -12 22 -29 24 -30
18 -13 -5 13 4 15 51 15 31 0 60 -5 64 -11 5 -6 6 -3 3 8 -3 11 -2 16 4 12 6
-3 10 2 10 12 0 15 2 16 10 3 6 -10 6 -16 0 -18 -6 -2 -10 -8 -10 -14 0 -6 6
-5 15 2 13 11 18 10 31 -6 9 -10 12 -12 8 -4 -4 8 -14 24 -23 35 -10 13 -11
16 -1 8 21 -19 34 -16 19 5 -13 16 -12 16 6 1 11 -9 26 -14 33 -12 6 3 12 0
12 -7 0 -6 -4 -8 -10 -5 -16 10 -11 -1 7 -16 9 -8 14 -9 10 -3 -8 14 105 14
116 -1 5 -6 7 -3 4 7 -6 17 15 42 26 31 13 -12 7 -25 -7 -20 -10 4 -13 1 -9
-9 4 -11 8 -12 19 -3 12 9 18 8 29 -7 15 -18 15 -18 8 1 -6 18 -5 19 12 5 15
-12 14 -7 -5 20 -19 28 -20 32 -4 19 10 -9 25 -14 32 -12 6 3 12 0 12 -7 0 -6
-5 -8 -12 -4 -8 5 -8 1 2 -12 22 -29 24 -30 18 -13 -5 13 4 15 51 15 31 0 60
-5 64 -11 5 -6 6 -3 3 8 -3 11 -2 16 4 12 6 -3 10 2 10 12 0 15 2 16 10 3 6
-10 6 -16 0 -18 -6 -2 -10 -8 -10 -14 0 -6 6 -5 15 2 13 11 18 10 31 -6 9 -10
12 -12 8 -4 -4 8 -14 24 -23 35 -10 13 -11 16 -1 8 21 -19 34 -16 19 5 -13 16
-12 16 6 1 11 -9 26 -14 33 -12 6 3 12 0 12 -7 0 -6 -4 -8 -10 -5 -16 10 -11
-1 7 -16 9 -8 14 -9 10 -3 -8 14 105 14 116 -1 5 -6 7 -3 4 7 -6 17 15 42 26
31 13 -12 7 -25 -7 -20 -10 4 -13 1 -9 -9 4 -11 8 -12 19 -3 12 9 18 8 29 -7
15 -18 15 -18 8 1 -6 18 -5 19 12 5 15 -12 14 -7 -5 20 -19 28 -20 32 -4 19
10 -9 25 -14 32 -12 6 3 12 0 12 -7 0 -6 -5 -8 -12 -4 -8 5 -8 1 2 -12 22 -29
24 -30 18 -13 -5 13 4 15 51 15 31 0 60 -5 64 -11 5 -6 6 -3 3 8 -3 11 -2 16
4 12 6 -3 10 2 10 12 0 15 2 16 10 3 6 -10 6 -16 0 -18 -6 -2 -10 -8 -10 -14
0 -6 6 -5 15 2 13 11 18 10 31 -6 9 -10 12 -12 8 -4 -4 8 -14 24 -23 35 -10
13 -11 16 -1 8 21 -19 34 -16 19 4 -13 17 -12 17 6 2 11 -9 26 -14 33 -12 6 3
12 0 12 -7 0 -6 -4 -8 -10 -5 -16 10 -11 -1 7 -16 9 -8 14 -9 10 -3 -8 14 105
14 116 -1 5 -6 7 -3 4 7 -6 17 15 42 26 31 13 -12 7 -25 -7 -20 -10 4 -13 1
-9 -9 4 -11 8 -12 19 -3 12 9 18 8 29 -7 15 -18 15 -18 8 1 -6 18 -5 19 12 5
15 -12 14 -7 -5 20 -19 28 -20 32 -4 19 10 -9 25 -14 32 -12 6 3 12 0 12 -7 0
-6 -5 -8 -12 -4 -8 5 -8 1 2 -12 22 -29 24 -30 18 -13 -5 13 4 15 51 15 31 0
60 -5 64 -11 5 -6 6 -3 3 8 -3 11 -2 16 4 12 6 -3 10 2 10 12 0 15 2 16 10 3
6 -10 6 -16 0 -18 -6 -2 -10 -8 -10 -14 0 -6 6 -5 15 2 13 11 18 10 31 -6 9
-10 12 -12 8 -4 -4 8 -14 24 -23 35 -10 13 -11 16 -1 8 21 -19 34 -16 19 4
-13 17 -12 17 6 2 11 -9 26 -14 33 -12 6 3 12 0 12 -7 0 -6 -5 -8 -12 -4 -9 5
-9 2 1 -9 14 -18 26 -24 17 -9 -8 13 107 10 117 -3 5 -6 7 -3 4 7 -6 17 15 42
26 31 13 -12 7 -25 -7 -20 -10 4 -13 1 -9 -9 4 -11 8 -12 19 -3 12 9 18 8 29
-7 15 -18 15 -18 8 1 -6 18 -5 19 12 5 15 -12 14 -7 -5 20 -19 28 -20 32 -4
19 10 -9 25 -14 32 -12 6 3 12 0 12 -7 0 -6 -5 -8 -12 -4 -8 5 -8 1 2 -12 22
-29 24 -30 18 -13 -5 13 4 15 51 15 31 0 60 -5 64 -11 5 -6 6 -3 3 8 -3 11 -2
16 4 12 6 -3 10 2 10 12 0 15 2 16 10 3 6 -10 6 -16 0 -18 -6 -2 -10 -8 -10
-14 0 -6 6 -5 15 2 13 11 18 10 31 -6 9 -10 12 -12 8 -4 -4 8 -14 24 -23 35
-10 13 -11 16 -1 7 21 -18 34 -15 19 5 -13 17 -12 17 6 2 11 -9 26 -14 33 -12
6 3 12 0 12 -7 0 -6 -4 -8 -10 -5 -16 10 -11 -1 7 -16 9 -8 14 -9 10 -3 -8 14
105 14 116 -1 5 -6 7 -3 4 7 -6 17 15 42 26 31 13 -12 7 -25 -7 -20 -10 4 -13
1 -9 -9 4 -11 8 -12 19 -3 12 9 18 8 29 -7 15 -18 15 -18 8 1 -6 18 -5 19 12
5 15 -12 14 -7 -5 20 -19 28 -20 32 -4 19 10 -9 25 -14 32 -12 6 3 12 0 12 -7
0 -6 -5 -8 -12 -4 -8 5 -8 1 2 -12 22 -29 24 -30 18 -13 -5 13 4 15 51 15 31
0 60 -5 64 -11 5 -6 6 -3 3 8 -3 11 -2 16 4 12 6 -3 10 2 10 12 0 15 2 16 10
3 6 -10 6 -16 0 -18 -6 -2 -10 -8 -10 -14 0 -6 6 -5 15 2 13 11 18 10 31 -6 9
-10 12 -12 8 -4 -4 8 -14 24 -23 35 -10 13 -11 16 -1 7 21 -18 34 -15 19 6
-13 16 -12 16 6 1 11 -9 26 -14 33 -12 6 3 12 0 12 -7 0 -6 -5 -8 -12 -4 -9 5
-9 2 1 -9 14 -18 26 -24 17 -8 -10 15 84 6 95 -9 9 -13 10 -13 8 0 -3 28 1 40
12 40 6 0 9 -6 6 -13 -4 -10 3 -13 21 -12 15 1 31 -3 35 -9 5 -6 6 -2 2 10 -6
24 14 38 40 28 19 -8 19 -21 0 -21 -8 0 -12 4 -9 9 3 4 0 8 -5 8 -6 0 -11 -7
-11 -16 0 -10 6 -14 14 -11 17 7 39 -16 28 -28 -4 -5 -1 -5 6 -1 10 6 10 11 1
22 -11 13 -5 19 16 14 35 -7 55 -5 59 6 3 7 14 12 26 11 11 -1 19 -6 16 -13
-2 -6 6 -10 22 -9 15 1 31 -3 35 -9 5 -7 7 -5 4 4 -2 8 -10 14 -16 12 -7 -1
-10 2 -6 7 3 6 13 7 23 4 15 -6 16 -5 2 13 -14 18 -14 18 5 3 11 -9 26 -14 33
-12 6 3 12 0 12 -6 0 -5 -9 -8 -20 -6 -11 2 -20 -1 -20 -7 0 -5 7 -8 15 -4 8
3 19 -2 24 -12 7 -11 11 -12 11 -4 0 8 5 10 13 6 9 -6 9 -5 0 7 -9 11 -8 18 3
33 8 11 14 15 14 10 0 -6 -5 -15 -12 -22 -9 -9 -8 -12 5 -12 9 0 17 5 17 10 0
6 5 10 11 10 6 0 9 -7 5 -15 -3 -8 -1 -15 4 -15 6 0 10 7 10 16 0 9 5 12 12 8
7 -4 8 -3 4 5 -4 6 -11 9 -16 6 -5 -3 -12 0 -16 6 -4 7 -3 9 2 6 17 -10 37 10
37 36 0 23 1 24 14 11 16 -16 27 -19 19 -5 -4 5 -3 11 1 14 5 2 2 2 -5 0 -8
-1 -12 3 -9 9 2 7 -2 27 -11 43 -14 30 -14 30 6 10 10 -11 18 -23 16 -26 -2
-4 2 -9 9 -12 7 -3 13 3 13 13 0 10 -3 17 -7 14 -10 -6 -22 26 -24 64 -1 22 2
29 9 22 14 -14 23 -12 23 5 0 8 -3 13 -5 10 -7 -6 -31 27 -32 43 0 6 4 12 10
12 5 0 7 -6 4 -14 -3 -8 -1 -17 5 -21 6 -3 11 -3 12 2 7 73 7 87 -1 66 -9 -23
-25 -30 -34 -15 -2 4 0 14 6 22 8 12 9 12 4 -3 -3 -9 -2 -17 2 -17 4 0 12 15
18 34 8 27 8 33 -3 29 -7 -3 -10 -9 -7 -14 3 -5 1 -9 -5 -9 -14 0 -20 23 -10
41 7 13 3 18 -18 24 -22 5 -24 8 -12 16 11 8 11 12 2 16 -7 2 -13 14 -13 26 0
19 -1 19 -12 4 -7 -9 -22 -15 -33 -13 -11 2 -24 1 -30 -3 -5 -3 -14 -6 -20 -7
-5 -1 -17 -4 -25 -6 -8 -3 -12 -3 -7 -1 4 3 5 8 2 12 -2 5 7 7 21 5 25 -2 25
-2 8 17 -9 10 -22 19 -27 19 -6 0 -2 -7 9 -15 18 -14 18 -15 -8 -11 -15 3 -33
8 -39 12 -8 5 -9 3 -5 -5 6 -8 2 -11 -10 -9 -11 2 -22 10 -26 18 -6 11 -7 10
-5 -5 1 -11 7 -20 14 -20 6 0 15 -3 19 -7 11 -12 -34 0 -68 17 -23 11 -34 12
-39 4 -5 -8 -13 -8 -29 1 -17 9 -21 9 -15 0 4 -7 1 -10 -11 -8 -11 2 -22 10
-26 18 -6 11 -7 10 -5 -5 1 -11 7 -20 14 -20 6 0 15 -3 19 -7 11 -12 -34 0
-68 17 -23 11 -34 12 -39 4 -5 -8 -13 -8 -29 1 -17 9 -21 9 -15 0 4 -7 1 -10
-11 -8 -11 2 -22 10 -26 18 -6 11 -7 10 -5 -5 1 -11 7 -20 14 -20 6 0 15 -3
19 -7 11 -12 -34 0 -68 17 -23 11 -34 12 -39 4 -5 -8 -13 -8 -29 1 -17 9 -21
9 -15 0 4 -7 1 -10 -11 -8 -11 2 -22 10 -26 18 -6 11 -7 10 -5 -5 1 -11 7 -20
14 -20 6 0 15 -3 19 -7 11 -12 -34 0 -68 17 -23 11 -34 12 -39 4 -9 -16 -30
-2 -23 15 3 8 1 17 -4 20 -5 3 -8 -6 -6 -19 2 -19 -3 -25 -19 -27 -47 -3 -52
-4 -50 -16 2 -6 -4 -9 -12 -6 -8 4 -15 10 -15 16 0 5 4 7 9 3 5 -3 12 -1 16 5
4 6 11 8 16 5 5 -4 9 -1 9 4 0 14 -17 14 -26 0 -4 -8 -9 -7 -15 2 -6 10 -9 11
-9 2 0 -7 -4 -13 -10 -13 -5 0 -7 8 -4 18 5 15 4 15 -6 -1 -9 -14 -15 -16 -26
-6 -10 8 -18 9 -27 0 -8 -6 -17 -8 -21 -4 -4 4 -4 -1 0 -12 4 -11 4 -17 -1
-13 -4 4 -14 3 -22 -4 -8 -6 -13 -7 -12 -2 4 21 -2 26 -16 14 -8 -7 -15 -9
-15 -5 0 5 -9 0 -20 -10 -18 -17 -20 -17 -14 -2 3 9 10 17 14 17 13 0 20 29 9
35 -5 4 -8 1 -7 -7 2 -8 -8 -14 -24 -16 -17 -2 -28 1 -28 9 0 7 -3 9 -6 6 -4
-4 -1 -14 7 -24 9 -11 10 -14 2 -9 -9 5 -13 1 -14 -11 0 -14 -2 -13 -10 5 -5
13 -14 20 -20 16 -17 -10 -79 -14 -79 -4 0 5 9 7 20 5 12 -2 18 0 15 6 -4 5
-10 7 -15 4 -5 -3 -11 -1 -15 5 -3 5 -12 10 -18 10 -7 0 -6 -4 3 -10 11 -7 5
-10 -25 -11 -65 -3 -70 -4 -68 -17 2 -6 -4 -9 -12 -6 -8 4 -15 10 -15 16 0 5
4 7 9 3 5 -3 12 -1 16 5 4 6 11 8 16 5 5 -4 9 -1 9 4 0 14 -17 14 -26 0 -4 -8
-9 -7 -15 2 -6 10 -9 11 -9 2 0 -7 -4 -13 -10 -13 -5 0 -7 8 -4 18 5 15 4 15
-6 -1 -9 -14 -15 -16 -26 -6 -10 8 -18 9 -27 0 -8 -6 -17 -8 -21 -4 -4 4 -4
-1 0 -12 4 -11 4 -17 -1 -13 -4 4 -14 3 -22 -4 -8 -6 -13 -7 -12 -2 4 21 -2
26 -16 14 -8 -7 -15 -9 -15 -5 0 5 -9 0 -20 -10 -18 -17 -20 -17 -14 -2 3 9
10 17 14 17 13 0 20 29 9 35 -5 4 -8 1 -7 -7 2 -8 -8 -14 -24 -16 -17 -2 -28
1 -28 9 0 7 -3 9 -6 6 -4 -4 -1 -14 7 -24 9 -11 10 -14 2 -9 -9 5 -13 1 -14
-11 0 -14 -2 -13 -10 5 -5 13 -14 20 -20 16 -17 -10 -79 -14 -79 -4 0 5 9 7
20 5 12 -2 18 0 15 6 -4 5 -10 7 -15 4 -5 -3 -11 -1 -15 5 -3 5 -12 10 -18 10
-7 0 -6 -4 3 -10 11 -7 5 -10 -25 -11 -65 -3 -70 -4 -68 -17 2 -6 -4 -9 -12
-6 -8 4 -15 10 -15 16 0 5 4 7 9 3 5 -3 12 -1 16 5 4 6 11 8 16 5 5 -4 9 -1 9
4 0 14 -17 14 -26 0 -4 -8 -9 -7 -15 2 -6 10 -9 11 -9 2 0 -7 -4 -13 -10 -13
-5 0 -7 8 -4 18 5 15 4 15 -6 -1 -11 -18 -12 -18 -33 0 -11 10 -18 13 -15 8 4
-6 0 -18 -7 -28 -11 -16 -13 -16 -19 -2 -3 9 -2 13 4 10 6 -3 10 -2 10 3 0 6
-6 12 -14 15 -10 4 -13 -1 -12 -18 3 -20 0 -22 -23 -18 -34 7 -43 7 -63 -2
-11 -4 -18 -3 -18 5 0 6 4 9 8 6 4 -2 14 -1 21 4 15 9 6 30 -12 30 -7 0 -6 -4
3 -10 8 -5 12 -10 8 -11 -27 -5 -35 -4 -47 5 -11 8 -13 8 -7 -2 6 -9 3 -12
-10 -10 -11 2 -22 10 -26 18 -6 11 -7 10 -5 -5 1 -11 7 -20 14 -20 6 0 15 -3
19 -7 11 -12 -34 0 -68 17 -23 11 -34 12 -39 4 -5 -8 -13 -8 -29 1 -17 9 -21
9 -15 0 4 -7 1 -10 -11 -8 -11 2 -22 10 -26 18 -6 11 -7 10 -5 -5 1 -11 7 -20
14 -20 6 0 15 -3 19 -7 11 -12 -34 0 -68 17 -23 11 -34 12 -39 4 -5 -8 -13 -8
-29 1 -17 9 -21 9 -15 0 4 -7 1 -10 -11 -8 -11 2 -22 10 -26 18 -6 11 -7 10
-5 -5 1 -11 7 -20 14 -20 6 0 15 -3 19 -7 11 -12 -34 0 -68 17 -23 11 -34 12
-39 4 -5 -8 -13 -8 -29 1 -17 9 -21 9 -15 0 4 -7 1 -10 -11 -8 -11 2 -22 10
-26 18 -6 11 -7 10 -5 -5 1 -11 7 -20 14 -20 6 0 15 -3 19 -7 11 -12 -34 0
-68 17 -23 11 -34 12 -39 4 -9 -16 -30 -2 -23 15 3 8 1 17 -4 20 -5 3 -8 -6
-6 -19z m-1083 -31 c4 -1 10 -2 13 -3 3 0 2 -6 -2 -12 -4 -7 -10 -7 -16 -1 -6
6 -17 8 -24 5 -8 -3 -14 -1 -14 4 0 15 12 23 24 15 6 -4 14 -7 19 -8z m461 9
c4 -5 12 -9 17 -9 19 -3 20 -4 14 -14 -5 -8 -11 -8 -20 0 -10 8 -16 7 -24 -7
-6 -10 -11 -13 -11 -7 0 5 6 16 13 23 10 11 9 13 -6 8 -11 -4 -16 -3 -12 3 7
12 19 13 29 3z m480 0 c4 -5 12 -9 17 -9 19 -3 20 -4 14 -14 -5 -8 -11 -8 -20
0 -10 8 -16 7 -24 -7 -6 -10 -11 -13 -11 -7 0 5 6 16 13 23 10 11 9 13 -6 8
-11 -4 -16 -3 -12 3 7 12 19 13 29 3z m211 -21 c-3 -3 -12 -7 -19 -8 -12 -2
-13 4 -7 35 1 2 8 -2 16 -9 9 -7 13 -15 10 -18z m160 0 c-3 -3 -12 -7 -19 -8
-12 -2 -13 4 -7 35 1 2 8 -2 16 -9 9 -7 13 -15 10 -18z m160 0 c-3 -3 -12 -7
-19 -8 -12 -2 -13 4 -7 35 1 2 8 -2 16 -9 9 -7 13 -15 10 -18z m160 0 c-3 -3
-12 -7 -19 -8 -12 -2 -13 4 -7 35 1 2 8 -2 16 -9 9 -7 13 -15 10 -18z m288 12
c4 -1 10 -2 13 -3 3 0 2 -6 -2 -12 -4 -7 -10 -7 -16 -1 -6 6 -17 8 -24 5 -8
-3 -14 -1 -14 4 0 15 12 23 24 15 6 -4 14 -7 19 -8z m461 9 c4 -5 12 -9 17 -9
19 -3 20 -4 14 -14 -5 -8 -11 -8 -20 0 -10 8 -16 7 -24 -7 -6 -10 -11 -13 -11
-7 0 5 6 16 13 23 10 11 9 13 -6 8 -11 -4 -16 -3 -12 3 7 12 19 13 29 3z m480
0 c4 -5 12 -9 17 -9 19 -3 20 -4 14 -14 -5 -8 -11 -8 -20 0 -10 8 -16 7 -24
-7 -6 -10 -11 -13 -11 -7 0 5 6 16 13 23 10 11 9 13 -6 8 -11 -4 -16 -3 -12 3
7 12 19 13 29 3z m211 -21 c-3 -3 -12 -7 -19 -8 -12 -2 -13 4 -7 35 1 2 8 -2
16 -9 9 -7 13 -15 10 -18z m160 0 c-3 -3 -12 -7 -19 -8 -12 -2 -13 4 -7 35 1
2 8 -2 16 -9 9 -7 13 -15 10 -18z m160 0 c-3 -3 -12 -7 -19 -8 -12 -2 -13 4
-7 35 1 2 8 -2 16 -9 9 -7 13 -15 10 -18z m160 0 c-3 -3 -12 -7 -19 -8 -12 -2
-13 4 -7 35 1 2 8 -2 16 -9 9 -7 13 -15 10 -18z m-2449 6 c4 -7 3 -8 -4 -4 -7
4 -12 2 -12 -5 0 -7 -3 -10 -6 -6 -6 5 3 27 11 27 2 0 7 -5 11 -12z m159 2 c3
-6 -1 -7 -9 -4 -18 7 -21 14 -7 14 6 0 13 -4 16 -10z m160 0 c3 -6 -1 -7 -9
-4 -18 7 -21 14 -7 14 6 0 13 -4 16 -10z m160 0 c3 -6 -1 -7 -9 -4 -18 7 -21
14 -7 14 6 0 13 -4 16 -10z m1441 -2 c4 -7 3 -8 -4 -4 -7 4 -12 2 -12 -5 0 -7
-3 -10 -6 -6 -6 5 3 27 11 27 2 0 7 -5 11 -12z m159 2 c3 -6 -1 -7 -9 -4 -18
7 -21 14 -7 14 6 0 13 -4 16 -10z m160 0 c3 -6 -1 -7 -9 -4 -18 7 -21 14 -7
14 6 0 13 -4 16 -10z m160 0 c3 -6 -1 -7 -9 -4 -18 7 -21 14 -7 14 6 0 13 -4
16 -10z m-3625 -16 c0 -8 -19 -13 -24 -6 -3 5 1 9 9 9 8 0 15 -2 15 -3z m1920
0 c0 -8 -19 -13 -24 -6 -3 5 1 9 9 9 8 0 15 -2 15 -3z m-2205 -284 c-3 -5 -1
-10 6 -10 7 0 10 -2 7 -5 -8 -9 -38 6 -32 16 3 5 10 9 15 9 6 0 7 -4 4 -10z
m3799 -118 c3 -5 -1 -9 -9 -9 -8 0 -12 4 -9 9 3 4 7 8 9 8 2 0 6 -4 9 -8z
m200 -8 c3 -8 2 -12 -4 -9 -6 3 -10 10 -10 16 0 14 7 11 14 -7z m-3877 -22 c0
-10 -7 -19 -14 -19 -9 0 -10 4 -3 12 5 7 7 15 3 18 -3 4 -1 7 5 7 6 0 10 -8 9
-18z m283 11 c0 -5 -5 -15 -10 -23 -7 -12 -9 -10 -7 8 1 19 17 33 17 15z m480
0 c0 -5 -5 -15 -10 -23 -7 -12 -9 -10 -7 8 1 19 17 33 17 15z m480 0 c0 -5 -5
-15 -10 -23 -7 -12 -9 -10 -7 8 1 19 17 33 17 15z m480 0 c0 -5 -5 -15 -10
-23 -7 -12 -9 -10 -7 8 1 19 17 33 17 15z m480 0 c0 -5 -5 -15 -10 -23 -7 -12
-9 -10 -7 8 1 19 17 33 17 15z m480 0 c0 -5 -5 -15 -10 -23 -7 -12 -9 -10 -7
8 1 19 17 33 17 15z m480 0 c0 -5 -5 -15 -10 -23 -7 -12 -9 -10 -7 8 1 19 17
33 17 15z m457 -15 c2 -18 0 -20 -7 -8 -12 18 -13 30 -2 30 4 0 9 -10 9 -22z
m223 12 c0 -5 -2 -10 -4 -10 -3 0 -8 5 -11 10 -3 6 -1 10 4 10 6 0 11 -4 11
-10z m-3625 -14 c7 3 15 2 18 -3 3 -5 -9 -8 -26 -7 -40 2 -39 2 -31 15 4 7 10
7 16 1 6 -6 16 -8 23 -6z m262 1 c0 -14 -50 -17 -63 -4 -5 5 4 6 19 3 15 -2
27 0 27 5 0 5 4 9 8 9 5 0 9 -6 9 -13z m218 -1 c7 3 15 2 18 -3 3 -5 -9 -8
-26 -7 -40 2 -39 2 -31 15 4 7 10 7 16 1 6 -6 16 -8 23 -6z m262 1 c0 -14 -50
-17 -63 -4 -5 5 4 6 19 3 15 -2 27 0 27 5 0 5 4 9 8 9 5 0 9 -6 9 -13z m218
-1 c7 3 15 2 18 -3 3 -5 -9 -8 -26 -7 -40 2 -39 2 -31 15 4 7 10 7 16 1 6 -6
16 -8 23 -6z m262 1 c0 -14 -50 -17 -63 -4 -5 5 4 6 19 3 15 -2 27 0 27 5 0 5
4 9 8 9 5 0 9 -6 9 -13z m218 -1 c7 3 15 2 18 -3 3 -5 -9 -8 -26 -7 -40 2 -39
2 -31 15 4 7 10 7 16 1 6 -6 16 -8 23 -6z m262 1 c0 -14 -50 -17 -63 -4 -5 5
4 6 19 3 15 -2 27 0 27 5 0 5 4 9 8 9 5 0 9 -6 9 -13z m218 -1 c7 3 15 2 18
-3 3 -5 -9 -8 -26 -7 -40 2 -39 2 -31 15 4 7 10 7 16 1 6 -6 16 -8 23 -6z
m262 1 c0 -14 -50 -17 -63 -4 -5 5 4 6 19 3 15 -2 27 0 27 5 0 5 4 9 8 9 5 0
9 -6 9 -13z m218 -1 c7 3 15 2 18 -3 3 -5 -9 -8 -26 -7 -40 2 -39 2 -31 15 4
7 10 7 16 1 6 -6 16 -8 23 -6z m262 1 c0 -14 -50 -17 -63 -4 -5 5 4 6 19 3 15
-2 27 0 27 5 0 5 4 9 8 9 5 0 9 -6 9 -13z m218 -1 c7 3 15 2 18 -3 3 -5 -9 -8
-26 -7 -40 2 -39 2 -31 15 4 7 10 7 16 1 6 -6 16 -8 23 -6z m262 1 c0 -14 -50
-17 -63 -4 -5 5 4 6 19 3 15 -2 27 0 27 5 0 5 4 9 8 9 5 0 9 -6 9 -13z m218
-1 c7 3 15 2 18 -3 3 -5 -9 -8 -26 -7 -40 2 -39 2 -31 15 4 7 10 7 16 1 6 -6
16 -8 23 -6z m104 1 c8 -10 7 -14 -2 -14 -8 0 -14 6 -14 14 0 7 1 13 2 13 2 0
8 -6 14 -13z m130 4 c7 -5 9 -11 5 -14 -5 -3 -15 1 -22 9 -14 16 -5 18 17 5z
m105 -6 c-4 -8 -8 -15 -10 -15 -2 0 -4 7 -4 15 0 8 4 15 10 15 5 0 7 -7 4 -15z
m-3884 -5 c0 -5 -2 -10 -4 -10 -3 0 -8 5 -11 10 -3 6 -1 10 4 10 6 0 11 -4 11
-10z m480 0 c0 -5 -2 -10 -4 -10 -3 0 -8 5 -11 10 -3 6 -1 10 4 10 6 0 11 -4
11 -10z m480 0 c0 -5 -2 -10 -4 -10 -3 0 -8 5 -11 10 -3 6 -1 10 4 10 6 0 11
-4 11 -10z m480 0 c0 -5 -2 -10 -4 -10 -3 0 -8 5 -11 10 -3 6 -1 10 4 10 6 0
11 -4 11 -10z m480 0 c0 -5 -2 -10 -4 -10 -3 0 -8 5 -11 10 -3 6 -1 10 4 10 6
0 11 -4 11 -10z m480 0 c0 -5 -2 -10 -4 -10 -3 0 -8 5 -11 10 -3 6 -1 10 4 10
6 0 11 -4 11 -10z m480 0 c0 -5 -2 -10 -4 -10 -3 0 -8 5 -11 10 -3 6 -1 10 4
10 6 0 11 -4 11 -10z m480 0 c0 -5 -2 -10 -4 -10 -3 0 -8 5 -11 10 -3 6 -1 10
4 10 6 0 11 -4 11 -10z"/>
<path d="M1080 566 c0 -8 4 -17 9 -20 5 -4 7 3 4 14 -6 23 -13 26 -13 6z"/>
<path d="M1560 566 c0 -8 4 -17 9 -20 5 -4 7 3 4 14 -6 23 -13 26 -13 6z"/>
<path d="M3000 566 c0 -8 4 -17 9 -20 5 -4 7 3 4 14 -6 23 -13 26 -13 6z"/>
<path d="M3480 566 c0 -8 4 -17 9 -20 5 -4 7 3 4 14 -6 23 -13 26 -13 6z"/>
<path d="M4548 573 c6 -2 10 -8 7 -13 -7 -11 22 -7 32 5 4 4 2 5 -4 1 -7 -4
-13 -2 -13 3 0 6 -8 11 -17 10 -11 0 -13 -3 -5 -6z"/>
<path d="M480 560 c-8 -5 -12 -12 -9 -15 4 -3 12 1 19 10 14 17 11 19 -10 5z"/>
<path d="M1036 555 c4 -8 8 -15 10 -15 2 0 4 7 4 15 0 8 -4 15 -10 15 -5 0 -7
-7 -4 -15z"/>
<path d="M1186 553 c-6 -14 -5 -15 5 -6 7 7 10 15 7 18 -3 3 -9 -2 -12 -12z"/>
<path d="M1210 561 c0 -6 4 -12 8 -15 5 -3 9 1 9 9 0 8 -4 15 -9 15 -4 0 -8
-4 -8 -9z"/>
<path d="M1516 555 c4 -8 8 -15 10 -15 2 0 4 7 4 15 0 8 -4 15 -10 15 -5 0 -7
-7 -4 -15z"/>
<path d="M1666 553 c-6 -14 -5 -15 5 -6 7 7 10 15 7 18 -3 3 -9 -2 -12 -12z"/>
<path d="M1690 561 c0 -6 4 -12 8 -15 5 -3 9 1 9 9 0 8 -4 15 -9 15 -4 0 -8
-4 -8 -9z"/>
<path d="M2956 555 c4 -8 8 -15 10 -15 2 0 4 7 4 15 0 8 -4 15 -10 15 -5 0 -7
-7 -4 -15z"/>
<path d="M3106 553 c-6 -14 -5 -15 5 -6 7 7 10 15 7 18 -3 3 -9 -2 -12 -12z"/>
<path d="M3130 561 c0 -6 4 -12 8 -15 5 -3 9 1 9 9 0 8 -4 15 -9 15 -4 0 -8
-4 -8 -9z"/>
<path d="M3436 555 c4 -8 8 -15 10 -15 2 0 4 7 4 15 0 8 -4 15 -10 15 -5 0 -7
-7 -4 -15z"/>
<path d="M3586 553 c-6 -14 -5 -15 5 -6 7 7 10 15 7 18 -3 3 -9 -2 -12 -12z"/>
<path d="M3610 561 c0 -6 4 -12 8 -15 5 -3 9 1 9 9 0 8 -4 15 -9 15 -4 0 -8
-4 -8 -9z"/>
<path d="M4657 516 c-4 -10 -1 -13 8 -9 8 3 12 9 9 14 -7 12 -11 11 -17 -5z"/>
<path d="M4683 275 c0 -8 4 -15 9 -15 4 0 8 4 8 9 0 6 -4 12 -8 15 -5 3 -9 -1
-9 -9z"/>
<path d="M4680 246 c0 -2 7 -7 16 -10 8 -3 12 -2 9 4 -6 10 -25 14 -25 6z"/>
<path d="M405 189 c-4 -6 -5 -12 -2 -15 2 -3 7 2 10 11 7 17 1 20 -8 4z"/>
<path d="M440 123 c0 -6 8 -17 18 -24 16 -13 16 -13 2 6 -8 11 -16 22 -17 24
-2 2 -3 0 -3 -6z"/>
<path d="M4657 115 c-4 -8 -1 -17 6 -21 7 -4 9 -4 5 1 -4 4 -3 14 3 22 7 8 8
13 1 13 -5 0 -12 -7 -15 -15z"/>
<path d="M430 86 c0 -2 7 -7 16 -10 8 -3 12 -2 9 4 -6 10 -25 14 -25 6z"/>
<path d="M670 71 c0 -6 4 -13 10 -16 6 -3 7 1 4 9 -7 18 -14 21 -14 7z"/>
<path d="M1150 71 c0 -6 4 -13 10 -16 6 -3 7 1 4 9 -7 18 -14 21 -14 7z"/>
<path d="M1630 71 c0 -6 4 -13 10 -16 6 -3 7 1 4 9 -7 18 -14 21 -14 7z"/>
<path d="M2110 71 c0 -6 4 -13 10 -16 6 -3 7 1 4 9 -7 18 -14 21 -14 7z"/>
<path d="M2590 71 c0 -6 4 -13 10 -16 6 -3 7 1 4 9 -7 18 -14 21 -14 7z"/>
<path d="M3070 71 c0 -6 4 -13 10 -16 6 -3 7 1 4 9 -7 18 -14 21 -14 7z"/>
<path d="M3550 71 c0 -6 4 -13 10 -16 6 -3 7 1 4 9 -7 18 -14 21 -14 7z"/>
<path d="M4030 71 c0 -6 4 -13 10 -16 6 -3 7 1 4 9 -7 18 -14 21 -14 7z"/>
<path d="M4406 72 c-2 -4 -1 -14 4 -22 7 -11 9 -9 7 8 -1 24 -3 26 -11 14z"/>
</g>
</svg>
